<?xml version="1.0" encoding="UTF-8" standalone="no"?><svg xmlns="http://www.w3.org/2000/svg" xmlns:xlink="http://www.w3.org/1999/xlink" fill="#000000" height="434" preserveAspectRatio="xMidYMid meet" version="1" viewBox="-0.6 -0.0 436.9 434.0" width="436.9" zoomAndPan="magnify"><g id="change1_1"><path d="M161.15,8.16l-0.93,0.73C159.02,9.03,158.39,9,161.15,8.16z M270.83,7.87l-1.98,0.04 c0.4,0.13,0.83,0.27,1.25,0.4C270.6,8.28,270.87,8.15,270.83,7.87z M122.81,20.77c1.39-0.23,2.94-0.54,4.49-0.98 C127.71,19.24,126.04,19.48,122.81,20.77z M305.28,20.36c-1.11-0.69-2.89-1.77-5.25-2.53C301.94,18.64,303.54,19.51,305.28,20.36z M4.71,264.31c0.04,0.38,0.1,0.86,0.19,1.48L4.71,264.31z M275.41,425.08l-0.93,0.73C277.23,424.98,276.61,424.95,275.41,425.08z M164.8,426.1l1.98-0.04c-0.4-0.13-0.83-0.27-1.25-0.4C165.03,425.69,164.75,425.82,164.8,426.1z M312.82,413.2 c-1.39,0.23-2.94,0.54-4.49,0.98C307.92,414.73,309.59,414.5,312.82,413.2z M130.35,413.62c1.11,0.69,2.89,1.77,5.25,2.53 C133.69,415.33,132.09,414.46,130.35,413.62z M434.68,229.06c-1.67,17.04-4.96,33.68-8.89,51.61l0.41-0.57 c-1.23,3.38-2.72,6.67-4.07,10c-1.4,3.3-3.04,6.51-4.55,9.75c-1.33,3.67-0.85,5.1-3.1,11.15c0.04-0.83-0.25-0.54-0.79,0.4 c-0.57,0.92-1.38,2.49-2.3,4.26c-0.92,1.76-1.9,3.75-2.9,5.44c-1.03,1.67-2,3.1-2.73,3.85c-2.09,4.62,0.75,0.29,1.86-0.68 c-4.53,9.36-10.05,16.96-15.92,24.47c-1.52,1.84-3.05,3.69-4.6,5.57c-1.51,1.91-3.25,3.67-4.89,5.59 c-3.27,3.85-6.96,7.61-10.74,11.82c1.85-2.13,3.39-4.07,4.8-5.74c1.4-1.68,2.64-3.13,3.65-4.51c2.08-2.71,3.68-4.75,5.16-6.61 c1.4-1.92,2.68-3.65,4.17-5.69c0.73-1.03,1.57-2.08,2.41-3.36c0.83-1.27,1.75-2.68,2.8-4.29c-1.37,1.8-2.59,3.42-3.71,4.89 c-1.16,1.45-2.2,2.76-3.18,3.99c-0.95,1.24-1.84,2.4-2.69,3.52c-0.85,1.12-1.74,2.14-2.59,3.21c-3.41,4.25-6.99,8.64-14.07,15.28 c2.36-1.92,4.56-4.01,6.78-6.08c-1.43,2.12-3.43,4.56-5.87,6.83c-2.41,2.29-4.97,4.72-7.57,6.74c-2.55,2.09-4.92,4.04-6.8,5.58 c-1.88,1.54-3.17,2.81-3.45,3.67c-1.18,0.87-2.33,1.73-3.52,2.51c-1.21,0.74-2.42,1.48-3.62,2.22c-2.43,1.42-4.79,2.9-7.37,4.19 c-2.55,1.32-5.11,2.78-7.84,4.24c-2.77,1.42-5.61,3.03-8.66,4.82c2.04-0.45,4.06-0.98,6.11-1.47c-1.88,1.07-3.73,2.2-5.64,3.21 l-5.77,2.97l-0.69-0.99c-0.94,0.46-1.75,0.88-2.45,1.26c-0.71,0.36-1.31,0.65-1.8,0.93c-0.98,0.54-1.53,0.93-1.7,1.17 c-8.52,2.58-19.8,7.67-31.76,9.95l-1.17,0.95c-0.93,0.1-2.2,0.29-2.53,0.27c-1.01,0.89-3.94,1.65-6.62,2.46 c-2.69,0.77-5.14,1.52-5.31,1.99c3.87-0.61,12.87-2.12,11.99-2.64c2.46-0.39,2.97-0.34,2.25-0.01c-0.72,0.31-2.66,0.98-5.16,1.52 c-2.49,0.56-5.49,1.23-8.25,1.86c-2.8,0.48-5.36,0.92-6.97,1.19c3.42-0.9,2.88-0.99,1.01-0.79c-1.88,0.18-5.08,0.73-7.05,0.8 c-0.6,0.24,0.71,0.15,1.38,0.31c-6,1.07-10.15,1.12-13.79,0.89c-3.63-0.18-6.71-0.02-10.75,1.05l-2.15-1.06l-4.78,0.53 c-1.6,0.18-3.2,0.22-4.8,0.33c-0.41-1.13-3.78-1.26-7.23-1.39c-3.45-0.29-6.99-0.58-7.66-1.67c-10.83-1.05,1.32,1.44-2.52,0.85 c-5.08-0.37-12.03-1.57-18.02-3.09c-1.5-0.35-2.95-0.69-4.31-1.01c-1.35-0.37-2.6-0.7-3.72-0.98c-2.25-0.55-3.98-0.88-4.88-0.82 c-2.11-0.64-4.21-1.47-6.36-2.11c-1.47-0.49-2.95-0.92-4.42-1.37c-1.72-0.3-3.35-0.68-4.89-1.22c-5.67-2-6.4-2.43-5.47-2.36 c-0.17-0.07-0.36-0.13-0.53-0.2c-0.91-0.39-1.78-0.78-2.62-1.17l-0.83,0.7c-1.76-0.83-3.67-1.74-5.57-2.64 c-1.62-0.78-3.21-1.6-4.75-2.26c0.51,0.35,0.92,0.69,1.14,0.96c-0.33-0.22-0.94-0.57-1.7-1c0.18,0.16,0.45,0.37,0.83,0.61 c-4.08-2.03-7.85-4-11.45-5.97c-0.31-0.12-0.6-0.24-0.87-0.33c-0.09,0.4,9.6,5.43,3.27,2.39c-1.42-0.77-2.77-1.5-4.06-2.21 c-1.3-0.68-2.53-1.35-3.67-2.05c-2.31-1.36-4.44-2.58-6.43-3.71c-2.98-1.8-5.65-3.41-8.2-4.96c0.84,0.68,2.09,1.59,3.98,2.88 c-2.51-1.39-5.42-3.04-8.32-5.27c-1.12-0.83-2.29-1.71-3.47-2.62c-4.71-3.15-9.72-6.76-15.92-12.34l1.06,1.86 c-1.87-1.86-3.23-3.33-5.21-4.9l0.69,1.31c-0.6-0.57-2.07-2.05-4.11-4.12c-1.01-1.04-2.19-2.2-3.44-3.51 c-1.21-1.34-2.52-2.79-3.89-4.31c-2.81-2.98-5.59-6.49-8.45-9.85c-1.46-1.65-2.72-3.45-4.05-5.1c-1.31-1.66-2.58-3.27-3.78-4.78 c1.34,2.26,2.76,4.48,4.15,6.73l-3.85-5.71c-1.23-1.94-2.39-3.92-3.58-5.87l-0.16,1.97c-1.91-4.45-11.34-17.52-16.72-29.35 l-0.67,0.44c-0.52-1.21-1.08-2.39-1.55-3.61l-1.41-3.67l0.59,2.65c-1.54-3.58-3.12-7.55-4.4-11.77c-0.69-2.09-1.4-4.21-2.19-6.3 c-0.69-2.13-1.45-4.25-2.32-6.31c2.08,5.37,1.33,7.12,0.63,6.81c-1.03-3.82-2.14-7.6-3.07-11.43l-1.28-5.77 c-0.42-1.92-0.87-3.83-1.16-5.77c-0.61-0.37-2.75-8.8-2.34-4.77l-0.39-3.12l-0.36-4.62l-0.5,0.82c-3.92-18.06-4.12-35.48-2.51-52.47 c1.67-17.04,4.96-33.68,8.89-51.61l-0.41,0.57c1.23-3.38,2.72-6.67,4.07-10c1.4-3.3,3.04-6.51,4.55-9.75 c1.33-3.67,0.85-5.1,3.1-11.15c-0.04,0.83,0.25,0.54,0.79-0.4c0.57-0.92,1.38-2.49,2.3-4.26c0.92-1.76,1.9-3.75,2.9-5.44 c1.03-1.67,2-3.1,2.73-3.85c2.09-4.62-0.75-0.29-1.86,0.68c4.53-9.36,10.05-16.96,15.92-24.47c1.52-1.84,3.05-3.69,4.6-5.57 c1.51-1.91,3.25-3.67,4.89-5.59c3.27-3.85,6.96-7.61,10.74-11.82c-1.85,2.13-3.39,4.07-4.8,5.74c-1.4,1.68-2.64,3.13-3.65,4.51 c-2.08,2.71-3.68,4.75-5.16,6.61c-1.4,1.92-2.68,3.65-4.17,5.69c-0.73,1.03-1.57,2.08-2.41,3.36c-0.83,1.27-1.75,2.68-2.8,4.29 c1.37-1.8,2.59-3.42,3.71-4.89c1.16-1.45,2.2-2.76,3.18-3.99c0.95-1.24,1.84-2.4,2.69-3.52c0.85-1.12,1.74-2.14,2.59-3.21 c3.41-4.25,6.99-8.64,14.07-15.28c-2.36,1.92-4.56,4.01-6.78,6.08c1.43-2.12,3.43-4.56,5.87-6.83c2.41-2.29,4.97-4.72,7.57-6.74 c2.55-2.09,4.92-4.04,6.8-5.58c1.88-1.54,3.17-2.81,3.45-3.67c1.18-0.87,2.33-1.73,3.52-2.51c1.21-0.74,2.42-1.48,3.62-2.22 c2.43-1.42,4.79-2.9,7.37-4.19c2.55-1.32,5.11-2.78,7.84-4.24c2.77-1.42,5.61-3.03,8.66-4.82c-2.04,0.45-4.06,0.98-6.11,1.47 c1.88-1.07,3.73-2.2,5.64-3.21l5.77-2.97l0.69,0.99c0.94-0.46,1.75-0.88,2.45-1.26c0.71-0.36,1.31-0.65,1.8-0.93 c0.98-0.54,1.53-0.93,1.7-1.17c8.52-2.58,19.8-7.67,31.76-9.95l1.17-0.95c0.93-0.1,2.2-0.29,2.53-0.27 c1.01-0.89,3.94-1.65,6.62-2.46c2.69-0.77,5.14-1.52,5.31-1.99c-3.87,0.61-12.87,2.12-11.99,2.64c-2.46,0.39-2.97,0.34-2.25,0.01 c0.72-0.31,2.66-0.98,5.16-1.52c2.49-0.56,5.49-1.23,8.25-1.86c2.8-0.48,5.36-0.92,6.97-1.19c-3.42,0.9-2.88,0.99-1.01,0.79 c1.88-0.18,5.08-0.73,7.05-0.8c0.6-0.24-0.71-0.15-1.38-0.31c6-1.07,10.15-1.12,13.79-0.89c3.63,0.18,6.71,0.02,10.75-1.05 l2.15,1.06l4.78-0.53c1.6-0.18,3.2-0.22,4.8-0.33c0.41,1.13,3.78,1.26,7.23,1.39c3.45,0.29,6.99,0.58,7.66,1.67 c10.83,1.05-1.32-1.44,2.52-0.85c5.08,0.37,12.03,1.57,18.02,3.09c1.5,0.35,2.95,0.69,4.31,1.01c1.35,0.37,2.6,0.7,3.72,0.98 c2.25,0.55,3.98,0.88,4.88,0.82c2.11,0.64,4.21,1.47,6.36,2.11c1.47,0.49,2.95,0.92,4.42,1.37c1.72,0.3,3.35,0.68,4.89,1.22 c5.68,2,6.4,2.43,5.47,2.36c0.17,0.07,0.36,0.13,0.53,0.2c0.91,0.39,1.78,0.78,2.62,1.17l0.83-0.7c1.76,0.83,3.67,1.74,5.57,2.64 c1.62,0.78,3.21,1.6,4.75,2.26c-0.51-0.35-0.92-0.69-1.14-0.96c0.33,0.22,0.94,0.57,1.7,1c-0.18-0.16-0.45-0.37-0.83-0.61 c4.08,2.03,7.85,4,11.45,5.97c0.31,0.12,0.6,0.24,0.87,0.33c0.09-0.4-9.6-5.43-3.27-2.39c1.42,0.77,2.77,1.5,4.06,2.21 c1.3,0.68,2.53,1.35,3.67,2.05c2.31,1.36,4.44,2.58,6.43,3.71c2.98,1.8,5.65,3.41,8.2,4.96c-0.84-0.68-2.1-1.59-3.98-2.88 c2.51,1.39,5.42,3.04,8.32,5.27c1.12,0.84,2.29,1.71,3.47,2.62c4.71,3.15,9.72,6.76,15.92,12.34l-1.06-1.86 c1.87,1.86,3.23,3.33,5.21,4.9l-0.69-1.31c0.6,0.57,2.07,2.05,4.11,4.12c1.01,1.04,2.19,2.2,3.44,3.51 c1.21,1.34,2.52,2.79,3.89,4.31c2.81,2.98,5.59,6.49,8.45,9.85c1.46,1.65,2.72,3.45,4.05,5.1c1.31,1.66,2.58,3.27,3.78,4.78 c-1.34-2.26-2.76-4.48-4.15-6.73l3.85,5.71c1.23,1.94,2.39,3.92,3.58,5.87l0.16-1.97c1.91,4.45,11.34,17.52,16.72,29.35l0.67-0.44 c0.52,1.21,1.08,2.39,1.55,3.61l1.41,3.67l-0.59-2.65c1.54,3.58,3.12,7.55,4.4,11.77c0.69,2.09,1.4,4.21,2.19,6.3 c0.69,2.13,1.45,4.25,2.32,6.31c-2.08-5.37-1.33-7.12-0.64-6.81c1.03,3.82,2.14,7.6,3.07,11.43l1.28,5.77 c0.42,1.92,0.87,3.83,1.16,5.77c0.61,0.37,2.75,8.8,2.34,4.77l0.39,3.12l0.36,4.62l0.5-0.82 C436.09,194.64,436.29,212.07,434.68,229.06z M9.43,164.64c-0.73,2.56-1.64,6.16-1.98,8.38c0.28-0.21,0.68-1.45,1.09-2.83 c0.5-2.12,1.04-4.24,1.6-6.35c0.07-0.4,0.16-0.86,0.28-1.41C10.88,160.58,10.16,162.07,9.43,164.64z M11.31,255.98 c-0.23-1.2-0.44-2.4-0.64-3.61c0.04,0.49,0.08,0.94,0.09,1.34c0,0.08,0,0.15,0.01,0.23C10.95,254.75,11.14,255.45,11.31,255.98z M15.68,144.04c-0.25,0.5-0.43,0.92-0.63,1.37c-1.52,3.09-4.12,6.37-4.53,12.55c1.36-2.16,1.78-3.93,2.3-5.83 c0.52-1.89,0.99-3.96,2.23-6.72C15.27,144.97,15.49,144.49,15.68,144.04z M45.75,90.89l-0.01-0.02c-0.09,0.11-0.18,0.23-0.26,0.34 C45.56,91.11,45.66,91,45.75,90.89z M55.39,79.09l-0.96,0.54c0.24-0.04,0.36,0.01,0.44,0.09C55.04,79.5,55.21,79.3,55.39,79.09z M67.18,371.93c-2.06-2.04-2.44-3.11-3.22-4.43c-0.53-0.89-1.27-1.9-2.79-3.44c0.06,0.29-0.22,0.25-0.45,0.27 c0.71,1,1.16,1.77,1.63,2.53C63.22,368.2,64.14,369.6,67.18,371.93z M110.45,31.03c-0.25-0.31-2.35,0.6-4.68,1.75 c-2.29,1.22-4.84,2.65-6.12,3.14c-3.15,2.22,1.67-0.03,3.06-0.36c-1.56,1.1-2.68,1.72-4.96,3.01c1.1,0.29,2.48-0.77,4.48-2.34 c1-0.79,2.15-1.7,3.49-2.63C107.06,32.67,108.67,31.83,110.45,31.03z M129.04,19.84c-1.2,0.4-2.24,0.89-3.23,1.4 c-1.71,0.7-3.35,1.55-5.02,2.36c0.44,0.2,1.06-0.05,1.89-0.54c0.82-0.5,1.85-1.19,3.13-1.83L129.04,19.84z M142.77,20.13 c-0.64,0.05-1.43,0.22-2.31,0.48c0.4-0.06,0.79-0.12,1.21-0.2c0.3-0.05,0.61-0.12,0.95-0.22C142.66,20.17,142.71,20.15,142.77,20.13 z M182.76,9.78c-2.63,0.27-5.12,0.38-7.41,0.27c-0.82,0.66-0.68,0.94-0.95,1.31C177.16,10.77,179.95,10.25,182.76,9.78z M261.23,422.62c-2.77,0.58-5.55,1.1-8.36,1.57c2.63-0.27,5.12-0.38,7.41-0.27C261.1,423.27,260.96,422.98,261.23,422.62z M295.18,413.37c-0.4,0.06-0.79,0.12-1.21,0.2c-0.3,0.05-0.61,0.12-0.95,0.22c-0.05,0.02-0.1,0.04-0.16,0.06 C293.5,413.8,294.29,413.62,295.18,413.37z M314.83,410.37c-0.44-0.2-1.06,0.05-1.89,0.54c-0.82,0.5-1.85,1.19-3.13,1.83l-3.23,1.4 c1.2-0.4,2.24-0.89,3.23-1.4C311.53,412.03,313.17,411.18,314.83,410.37z M332.92,398.41c1.56-1.1,2.68-1.72,4.96-3.01 c-1.1-0.29-2.48,0.77-4.48,2.34c-1,0.79-2.15,1.7-3.49,2.63c-1.34,0.93-2.95,1.77-4.73,2.56c0.25,0.31,2.35-0.6,4.68-1.75 c2.29-1.22,4.84-2.65,6.12-3.14C339.13,395.83,334.31,398.09,332.92,398.41z M374.91,69.64c-0.71-1-1.16-1.77-1.63-2.53 c-0.87-1.33-1.78-2.73-4.83-5.07c2.06,2.04,2.44,3.11,3.22,4.43c0.53,0.89,1.27,1.9,2.79,3.44 C374.4,69.61,374.67,69.66,374.91,69.64z M381.2,354.35c-0.24,0.04-0.36-0.01-0.44-0.09c-0.17,0.21-0.34,0.42-0.52,0.63 L381.2,354.35z M390.15,342.77c-0.09,0.1-0.18,0.21-0.27,0.31l0.01,0.02C389.98,342.99,390.08,342.87,390.15,342.77z M424.32,178 c0.23,1.2,0.44,2.4,0.64,3.61c-0.04-0.48-0.08-0.94-0.09-1.34c0-0.08,0-0.15-0.01-0.23C424.67,179.23,424.49,178.52,424.32,178z M425.12,276.02c-1.36,2.16-1.78,3.93-2.3,5.83c-0.52,1.89-0.99,3.96-2.23,6.72c-0.23,0.44-0.45,0.92-0.63,1.37 c0.25-0.5,0.43-0.92,0.63-1.37C422.11,285.47,424.7,282.19,425.12,276.02z M428.18,260.95c-0.28,0.21-0.68,1.45-1.09,2.83 c-0.5,2.12-1.04,4.24-1.6,6.35c-0.07,0.4-0.16,0.86-0.28,1.41c-0.47,1.85,0.26,0.36,0.99-2.2 C426.93,266.77,427.84,263.17,428.18,260.95z M430.92,169.66c-0.04-0.38-0.1-0.86-0.19-1.48L430.92,169.66z" fill="#e38054"/></g></svg>