<?xml version="1.0" encoding="UTF-8" standalone="no"?><svg xmlns="http://www.w3.org/2000/svg" xmlns:xlink="http://www.w3.org/1999/xlink" fill="#000000" height="256.9" preserveAspectRatio="xMidYMid meet" version="1" viewBox="-0.2 -0.4 501.4 256.9" width="501.4" zoomAndPan="magnify"><g id="change1_1"><path d="m498.82,110.29c-.14-.09-.28-.19-.43-.26-2.21-.96-3.94-2.88-6.46-3.25-.26-.04-.47-.42-.79-.27-1.07.51-2.08.17-3.13-.09-.67-.17-1.35-.2-2.14.04-.8.23-1.02.86-1.57,1.2-1.93,1.21-4.15,1.77-6.2,2.69-1.07.48-2.09.82-2.15,2.24-1.09-.44-2.12-.98-2.9.32,0,0,0,0,0,0-1.39-.57-2.56.21-3.76.66-1.57.6-3.05,1.5-4.67,1.92-1.05.28-1.53.74-1.8,1.68-.08.27-.06.79-.55.68-1.04-.24-2.1-1.01-2.97.31-.01.02-.08.01-.12,0-2.34-.44-4.34.5-6.3,1.58-.61.33-.53.68.05.97.07.57-.29.97-.56,1.4-.87.25-1.72.55-2.45,1.12,0,0,0,0,0,0,.19-.73.45-1.42.94-2.01.18-.22.45-.45.3-.77-.19-.42-.51-.03-.75-.07-1.97-.33-3.67.71-5.26,1.44-2.35,1.07-4.7,2-7.2,2.68-1.65.45-3.36.93-4.64,2.21-.07,0-.14.02-.2.06-.21-.05-.39-.03-.53.16-.35.04-.6.21-.77.52-2.32.42-4.3,1.55-6.09,3.02-.46.38-.98.85-1.45.84-1.59-.03-2.76,1.3-4.35,1.19-.45-.03-.45.4-.45.74-.15.02-.29.05-.44.07-.31-.21-.45-.58-1.04-.39-1.2.39-2.16,1.37-3.51,1.4-.26,0-.3.36-.3.62,0,0-.02.02-.02.02-1.36.06-2.6.4-3.49,1.54-.07,0-.13,0-.19.04-.58-.02-1.15-.02-1.72.18-1.99.69-3.76,2-5.95,2.17-.22.02-.42.25-.63.37-.97.55-1.88,1.18-2.94,1.61-1.17.48-2.41.93-3.3,1.94-.19.22-.41.41-.73.44-2.14.15-4.14.85-6.1,1.64-1.34.54-2.88,1-2.76,2.95-.08.08-.16.17-.24.25-.77.21-1.39-.76-2.14-.32-1.08.63-2.5.49-3.38,1.58-.76.95-2.3,1.19-2.48,2.7-.01.11-.34.18-.52.28-.52-.22-.82-.91-1.53-.73-.48.52-1.41.26-1.75,1.02,0,.17,0,.34-.01.51-.01.14-.03.29-.04.43h0c-1.27-.33-1.73-.07-1.5.82-.02.32-.03.64-.05.96-.62-.22-1.53-.02-1.59-1.04-.05-.89-.49-.66-1.1-.59-1.9.23-3.02,1.79-4.5,2.67-1.45.87-2.9,1.27-4.47,1.49-.93.13-1.74.42-2.59.81-1.35.62-2.59,1.46-3.86,2.18-1.05.6-2.31.87-3.26,1.87-.89.93-2.25,1.67-3.52,1.89-1.16.21-1.89.63-2.5,1.52-.06-.02-.13-.01-.18.02-.2-.02-.38.02-.51.2.02.04.03.08.06.12-.02-.04-.04-.07-.06-.12-.18.08-.36.17-.54.25-.66.13-1.33.24-1.54,1.04-.06,0-.12.02-.17.06-.82-.14-1.69-.01-2.25.48-1.24,1.09-2.89,1.19-4.24,2.04-1.58,1-3.36,1.69-5.06,2.48-.46.22-.57.55-.55,1-.2.31-.25.65-.25,1.01-.66-.11-.87.31-.97.84-.09.48-.17.96-.25,1.44h0c-.09.16-.17.32-.26.48-.48.29-.85.2-1.3-.19-.46-.4-1.03-.83-1.72-.36-.24.01-.49.02-.73.04-.46-.39-.85-.4-1.12.21-.21.03-.43.06-.64.09-.45-.08-.84-.03-1.04.46,0,0,0,0,0,0h0c-.43.03-.76.28-1.11.51-.92.6-1.79,1.34-2.8,1.73-1.55.6-3.06,1.21-4.37,2.26-.17.09-.35.18-.52.26-1.44,1.13-3.09,2.03-4.74,2.64-2.12.79-3.92,1.87-5.57,3.37-.52.47-1.03,1.17-1.86,1.12-2.43-.14-3.93,1.39-5.42,2.94-.08.07-.17.14-.25.21-1.67.45-3.21,1.13-4.37,2.47-.61,0-.95.53-1.43.78-.81.12-1.29.69-1.75,1.3h0c-.38-.02-.7.06-.79.49-.06,0-.12,0-.18.03-.49-.03-.71.29-.86.69-.13.03-.26.05-.39.08-.69.16-1.45.19-1.78.98,0,0,0,0,0,0-.32,0-.5.16-.59.46-.06-.02-.12,0-.17.03-1.58-.33-2.24,1.35-3.6,1.63-.71.14-1.3.81-2.09,1.05-.52.16-.97.68-.84,1.39-.02.16-.05.33-.07.49-.26.21-.23.48-.19.76-.09.15-.18.3-.26.45-.2-.04-.44-.03-.58-.14-1.03-.81-3.27-.12-3.72,1.17-.66.11-.84.89-1.58,1.02-1.46.25-2.8.92-4.15,1.52-1.17-.14-1.44,1.08-2.25,1.49-.26.07-.53.15-.79.22-.98.57-2.23.61-3.03,1.53-.08.16-.16.32-.24.48-3.13,1.18-6.26,2.36-9.65,3.64.7-1.48,2.04-2.04,2.5-3.28.32-.25.63-.5.95-.74.05-.21.12-.38.21-.52-.09.14-.16.31-.21.52.78.06,1.14-.51,1.53-1.03.08-.07.17-.13.25-.2.68-.21,1.28-.5,1.52-1.25,0,0,.04-.02.04-.02,1.15-.64,2.49-1.09,3.39-1.98.85-.84,1.84-1.4,2.72-2.12,1.13-.92,2.36-1.72,3.44-2.73,1.21-1.13,2.78-1.7,4-2.95.95-.97,1.19-1.55.64-2.63,0,0,0,0,0,0,.74-.04,1.46,1.06,2.23.06.62-.8,1.5-1.28,2.3-1.85.4-.29.64-.53.12-.94-.46-.37-.54-.88-.04-1.25.57-.41,1.1-.09,1.33.44.44,1,1.05.65,1.39.11.43-.67,1.12-1.07,1.61-1.67.55-.68,1.31-2.07,2.81-1.44.2.08.84-.26.84-.4,0-.93.9-.61,1.26-1.01.65-.24,1.33-.42,1.78-1.01,1.03-.3,1.71-.9,1.75-2.04,1.31-.57,2.83-.67,3.83-1.89.2-.25.71-.21,1.02-.4.59-.36,1.53-.27,1.68-1.23,0,0,0,0,0,0,1.97-.51,3.22-2.22,5.01-3.03,0,0,0,0,0,0,.5-.01.77-.25.76-.76.03-.21.06-.42.1-.63.53-.2.39-.69.48-1.09.07-.07.15-.14.22-.21.3-.02.65-.05.77.27.53,1.36.95.61,1.34-.06.19-.32.42-.59.78-.44,1.11.47,1.49-.28,1.86-1.06,0,0,.01,0,.01,0,1.8-.25,2.89-1.84,4.51-2.44.4-.15.57-.58.6-1.02.2-.05.41-.1.61-.15,1.02.27,1.67-.21,2.15-1.04.18-.32.27-.72.7-.81,1.18-.24,1.66-1.33,2.47-2.02.16,0,.31,0,.46,0,1.05-.15,2.02-.47,2.8-1.24.33-.11.66-.22.98-.34.93-.25,1.71-.82,2.58-1.17,1.15-.46,1.69-1.09,1.22-2.33.14.02.28.04.41.06-.01.06,0,.12.03.17.06.62.47.63.9.47,1.27-.47,2.37-1.16,2.97-2.45.14-.1.28-.21.43-.31.95-.3,1.79-.99,2.87-.81.03,0,.08-.04.09-.07.42-.81,1.24-.93,2-1.15.73-.21,1.28-.56,1.46-1.36.09-.41.34-.84.84-.79,1.57.13,2.46-1.24,3.78-1.65,1-.31,1.47-1.09,1.55-2.12.05-.66.37-.81,1.03-.63,1.98.54,3.64-.36,5.04-1.55.62-.52,1.15-.87,1.91-.91.74-.04,1.23-.31,1.48-1.09.29-.91.95-1.48,1.98-1.47.33,0,.7.11.97-.13,1.24-1.06,2.37-2.26,3.8-3.1.19-.11.32-.29.3-.52-.07-.75.42-.74.96-.8,1.17-.11,2.22-.44,2.56-1.78.14-.52.43-.41.72-.12.17.18.29.45.6.35,1.13-.38,2.39-.54,3.35-1.26,1.5-1.11,2.89-2.36,4.66-3.05.23-.09.55-.17.64-.34,1.43-2.68,4.66-2.71,6.65-4.55.03-.02.08-.02.12-.02,1.56-.14,2.53-1.5,3.95-1.94.26-.08.32-.32.41-.57.44-1.23,2.13-2.2,3.41-1.94.63.13,1.29.19,1.3,1.17,0,.59.67.5,1.12.51.39,0,.57-.33.44-.6-.55-1.1.39-1.97.42-2.99.01-.43.1-.85-.16-1.17-1.23-1.5-2.57-2.94-2.59-5.06,0-.07-.08-.14-.13-.21-.91-1.26-1.71-2.62-2.77-3.73-.88-.94-2.22-1.35-3.17-2.32-.31-.32-1.12-.6-1.64-.28-.57.35-1.06.17-1.62.19-1.42.06-2.8.55-4.25.68-.72.06-1.62.52-2.42.45-.96-.08-1.77.02-2.61.49-.42.23-.98.35-1.45.3-2.72-.28-4.93,1.26-7.27,2.15-1.5.57-3.09.8-4.51,1.48-1.96.93-4.49-.11-6.11,1.86-.06.08-.24.09-.36.09-1.37-.05-2.48.84-3.79,1.02-1.67.23-2.69,1.94-4.36,2.08-1.18.1-2.31.24-3.41.7-.53.22-1.12.41-1.69.43-.69.02-1.26.29-1.89.5-1.43.46-2.09,1.96-3.47,2.45-.35.02-.6.2-.77.49-.44-.04-.77.13-.99.52-.16.02-.33.03-.49.05-.35-.08-.52.12-.61.42-.38.11-.77.21-1.15.32-1.13.03-2.03.92-3.19.88-.22,0-.36.31-.42.57-.3.2-.59.41-.89.61-.8-.1-.42.73-.77.98-.23-.02-.47-.03-.7-.05-.74-1.04-1.06-1.01-2.32.26-.16,0-.33-.01-.49-.02-.75-.55-1.21-.12-1.62.48-.06,0-.12,0-.16.05-1.97.37-3.63,1.57-5.56,2.08-.41.11-.67.47-.81.9-.14.02-.27.05-.4.07-.29.02-.63-.05-.86.07-3.2,1.73-7.1,1.9-9.96,4.41-.16.04-.31.09-.47.13-.32-.14-.56.07-.81.19-1.65.77-3.04,2.08-4.85,2.51-.92.22-1.46,1.06-2.41,1.19-1.73.22-2.01.54-2.28,2.28-1.06-.2-2.1-.37-2.56.99-.07,0-.13,0-.19.03-.95-.63-2.1-.1-2.79.14-2.06.7-4.24,1.28-6.02,2.73-.61.5-1.31.99-2.11,1.28-2.29.82-4.33,2.15-6.43,3.36-.16.03-.32.05-.48.08-.88.06-1.87-.17-2.38.89-.13.02-.26.05-.4.07-.97.43-1.81,1.21-2.99,1.13-.18-.01-.38.39-.57.6-.16.08-.32.16-.48.24-.32,0-.5.19-.57.49-.06,0-.12.01-.17.04-.92-.19-1.24.74-1.9,1.04-2.08.96-4.26,1.69-6.2,2.95-1.7,1.1-3.48,2.05-5.2,3.11-1.68,1.04-3.33,2.16-5.19,2.8-1.37.47-2.57,1.29-3.93,1.73-1.64.53-2.67,2.44-4.71,2.03-.14-.03-.35.2-.5.34-1.1,1.03-2.51,1.55-3.75,2.34-1.1.71-2.23,1.38-3.31,2.14-1.08.76-1.91,1.68-3.4,2.02-1.13.25-2.68.74-3.38,2.1,0,0,0,0,0,0-1.15.14-1.8,1.04-2.61,1.7-.4.02-.72.18-.93.53-.65-.06-1.17.33-1.55.7-.99.95-2.66.87-3.32,2.27-.06-.02-.11,0-.16.03-.86.36-1.88.49-2.33,1.5-.14.02-.27.04-.4.06-.75-.09-1.14.29-1.3.99-.04.05-.05.1-.03.16-.69.15-.75,1.05-1.45,1.2-.3.04-.58.1-.78.36-.79.03-1.25.91-2.13.77-.94-.15-.86.4-.63,1.01-.54-.13-1.13-.62-1.5.26,0,0,0,0,0,0-.82.09-1.47.43-1.85,1.21-.3.11-.6.22-.9.33-1.1.54-2.33.92-2.85,2.2-.06,0-.12,0-.17.04-.79-.03-1.4.27-1.78.99,0,0,0,0,0,0-.87.29-1.63.66-1.28,1.81,0,.15.02.29.03.44-.8-.25-1.21.38-1.72.77-.15-.09-.3-.18-.45-.27-.24-.46-.57-.55-1.02-.27-.59.37-1.18.8-1.82,1.06-1.96.78-3.47,2.28-5.3,3.24-1.76.92-2.69,2.92-4.69,3.5-.02,0-.04.07-.05.11-.13.67-.72.52-1.15.71-.68.31-1.79.01-1.93,1.2-.08.08-.15.16-.23.24-.65.11-1.33.16-1.54.97,0,0-.03.03-.03.03-1.08.61-2,1.5-3.2,1.91-.27.09-.5.28-.58.6h0c-.14.09-.28.19-.41.28-.95.07-1.79.61-2.33,1.22-.45.5.85.86.81,1.58-.08.08-.15.15-.23.23,0,.05,0,.11-.02.17.01-.06.02-.12.02-.17-.52-.11-1.21-.04-1.55-.35-1.31-1.22-1.62-.07-2.09.77h0c-.13.02-.26.04-.4.06-1.08.5-2.11,1.05-2.66,2.22-.2.43-.64.68-1.16.85-.74.24-1.66.38-1.79,1.43-.1,0-.2,0-.3-.01-.55-.72-.96-.31-1.09.26-.15.65-.49.75-1.05.78-2.08.12-3.63,1.6-5.53,2.2-.39.12-.72.55-.84,1.03-.06-.01-.11,0-.15.04-1.9.2-2.65,2.23-4.35,2.74-.06-.01-.11,0-.16.04-.73-.06-1.24.56-1.96.62-.87.08-1.39.65-1.43,1.57-.06-.02-.11,0-.15.04-1.01-.13-1.5.81-2.3,1.13-.36.15-.65.67-1.01.14-.29-.44.25-.6.44-.89.31-.46,1.28-.61.91-1.38-.35-.72.01-.72.48-.68.77.07,1.44-.21,1.96-.68.96-.85,1.8-1.82,2.71-2.73.3-.3.43-.53.11-.95-.47-.61.16-1.15.51-1.05,1.12.31,1.35-.49,1.77-1.11,0,0,0,0,0,0,1.31-.86,2.09-2.16,2.85-3.46.06,0,.1,0,.15-.05,1.01.29,1.46-.63,2.1-1.05.92-.6,1.69-1.44,2.18-2.48,1.31.22,2.13-.62,2.84-1.48,1.01-1.23,2.55-1.8,3.55-3.13.68-.9,1.49-1.95,2.51-2.51,1.06-.58,1.63-1.35,1.91-2.44.25-.91.5-1.82.75-2.74.7.03,1.06-.29,1.02-1.01,1.03-.31,2.14-.53,2.49-1.79.05-.27.22-.44.49-.5.9-.1,1.03.71,1.39,1.22.19.27.24.72.68.33,1.17-1.02,2.35-2.02,3.61-2.94,3.02-2.21,5.72-4.82,8.49-7.34.13-.03.26-.06.39-.1.55.09.77-.2.82-.7.16-.28.4-.44.7-.53.8-.25,1.9.01,2.29-.92.38-.89,1.07-1.19,1.83-1.44.73-.23,1.1-.66,1.2-1.38,1.72-.28,2.78-1.51,3.85-2.71,0,0,.09,0,.09,0l.08-.04c.99-.79,2.07-1.44,3.06-2.25,1.06-.87,2.16-1.72,3.27-2.52.61-.44,1.24-.73,1.82-1.3.89-.88,1.77-1.99,3.14-2.27,1.65-.35,2.7-1.66,4.05-2.48.08-.08.16-.15.24-.23h0c2.12-1.08,3.91-2.61,5.61-4.24,0,0,.09,0,.09,0l.08-.04c.8-.07,1.06-.87,1.65-1.24,1.85-1.17,3.61-2.45,4.72-4.41.11-.19.27-.38.48-.24.99.69.56-.36.77-.62.07-.07.14-.14.21-.22-.02-.16-.07-.36-.05-.51-.02.16.03.36.05.51,1.21-.11,2.38-.32,3.19-1.37.17-.16.34-.32.51-.48.16-.04.34-.04.47-.11,1.81-1.07,3.43-2.42,5.19-3.58.82-.54,2.27-.67,2.34-2.13.01-.25.03-.5.04-.75,1.43-.21,2.53-.92,3.25-2.18.24-.41.69-.18,1.02-.3,1.29-.46,2.71-.67,3.68-1.79.27-.31.65-.63.07-1.01.02-.07.03-.15.02-.23,1.14-.02,2.19-.3,3.14-.99.53-.39.73-1.1,1.46-1.3,1.5-.41,2.51-1.59,3.74-2.43.14-.09.16-.36.23-.55.12-.03.25-.04.36-.08,1.36-.54,2.39-1.63,3.72-2.3.61-.3,1.12-.84,1.9-.88.45-.02.58-.4.73-.75.52-1.16,1.49-1.86,2.69-1.72,1.61.19,2.3-.91,3.19-1.8.06,0,.12-.02.18-.05.54,0,.91-.33,1.31-.64,1.92-1.53,3.83-3.09,6.09-4.11.39-.18.39-.36.18-.66-.53-.74-.04-.77.55-.85,2-.28,3.74-1.12,5.21-2.51,0,0,0,0,0,0,.52-.52,1.69-.47,1.38-1.71.2.09.33.12.42.19.67.54,1.07-.03,1.27-.46.44-.96-.47-.24-.63-.45-.11-.14-.11-.37-.16-.56.73-.38,1.56-.78,2.31-.66.97.15,1.29-.35,1.78-.94.6-.73.88-1.68,1.66-2.28.48-.36.8-.66.99.24.1.48.38.95.87.21.13,0,.26.02.39.03.94.13,1.45-.57,2.11-1.03,1.19-.81,2.16-1.98,3.66-2.32,1.49-.33,2.51-1.55,3.92-2.06.27-.1.41-.41.44-.72.32-.17.64-.34.95-.51.56-.23,1.54-.36,1.62-.7.39-1.77,2-1.94,3.18-2.58,1.4-.76,1.66-1.13,1.15-2.66.81-.19,1.51.83,2.34.2.18-.09.35-.18.53-.27.82-.18.97-.92,1.29-1.53.07-.07.15-.15.22-.22,1.38-.17,2.53-.8,3.54-1.74,0,0,.03-.02.03-.02,1.05-.66,2.02-1.54,3.16-1.9,1.08-.35,1.57-.92,1.81-1.9,0,0,0,0,0,0,1.42-.28,1.9-.88,1.82-2.26,0,0,.09,0,.09,0l.08-.03c.7.01,1.12-1.08,1.36-.91,1.43,1.02,1.99-.31,2.98-.74.8-.35,1.04-.57.95-1.34-.06-.56.12-1.1.44-1.53.35-.48.74.04,1.12.12.64.13.64-.33.7-.76.07-.47-.19-.99.31-1.39,1.09-.89,1.2-1.7.35-2.88-.46-.64-.71-1.32-.72-2.08,0-.66-.21-1.28-.66-1.7-.38-.35-.42-.75-.58-1.17-.48-1.3-1.15-2.55-1.8-3.73-.56-1-1.98-1.54-3.06-2.21-.75-.46-1.52-1.3-2.36-1.18-1.89.28-3.71-.18-5.56-.15-2.95.05-5.77,1.04-8.7,1.2-1.48.08-2.75,1.2-4.32.86-.15-.03-.37.14-.53.26-1.19.82-2.11,2.34-3.94,1.53-.1-.04-.36.08-.43.19-.44.72-.98.81-1.68.38-.28-.17-.52-.07-.78.15-.39.33-.87.29-1.38.34-.8.07-1.74-.23-2.39.54-.23.05-.47.11-.7.16-.16-.01-.34-.07-.49-.03-2.32.53-4.6,1.23-6.76,2.23-.96.44-2.25.33-2.83,1.5-.37.05-.77.02-1.09.16-3.02,1.33-6.33,1.81-9.34,3.18-.42.19-.85.36-.96.89-.13.03-.27.06-.4.09-.05.52-.31.82-.71,1,.39-.18.66-.48.71-1-.98.08-1.8.66-2.65,1.02-1.84.79-3.8,1.4-5.32,2.82-.04.04-.17.04-.23,0-1.05-.61-1.84.22-2.7.52-2.64.92-5.12,2.22-7.72,3.24-1.67.65-3.54,1.24-4.75,2.6-1.16,1.31-2.96,1.23-4.18,2.42-.57.56-1.39,1.13-2.18,1.57,0,0-.03.02-.03.02-.13.01-.26.03-.38.04-.17,0-.34-.02-.51-.03-.69-.47-1.13-.24-1.39.49-.06-.02-.11-.01-.16.02-1.21-.14-2.27.19-3.28.86-.72.47-1.51.85-2.32,1.19-1.94.8-3.93,1.54-5.27,3.31-.56.74-1.81.46-2.23,1.44-2.04-.26-3.32,1.44-5.03,2.05-.72.26-1.96.58-2.17,1.77-.04.06-.06.13-.05.21-.59.12-1.09,1.12-1.61.63-1.03-.97-1.83-.27-2.66.11-1.53.71-3,1.54-4.52,2.28-1.03.5-2.44.92-2.97,1.59-.82,1.04-2.01,1.24-2.87,1.61-2.5,1.07-4.36,3.18-7.1,3.89-1.18.31-2.25,1.61-3.4,2.42-1.34.94-2.79,1.71-4.1,2.69-.76.57-2.21.41-2.18,1.89-.16,0-.32.01-.48.02h0c-1.13-.34-1.97.15-2.61,1.01-.31.41-.63.59-1.14.76-2.06.69-3.9,1.81-5.42,3.39-.13.03-.25.05-.38.08-1.28.37-2.61.59-3.18,2.14-.2.55-.95,1.31-1.39,1.27-1.81-.14-2.68,2.12-4.54,1.63-.09-.02-.25.08-.33.16-1.14,1.08-2.67,1.52-3.89,2.44-.77.58-1.74,1.18-1.9,2.17-.09.55-.22.61-.61.89-.56.4-1.01.51-1.66.38-.61-.13-1,.14-1.11.85-.19,1.27-.46,1.39-1.6.89-1.17-.51-1.52-.29-1.64,1.03-1.37.12-2.49.65-3.7,1.41-1.35.85-2.6,1.87-3.76,2.85-1.76,1.48-3.9,2.32-5.58,3.85-.2.18-.44.23-.68.07-.28-.19-.32-.47-.27-.77.06-.42.39-.62.68-.85.26-.08.51-.16.77-.23,1.34-.3,1.72-1.35,1.75-2.49.03-1.07.85-1.61,1.46-1.56,1.24.11,2.24-.5,3.36-.7.52-.09.78-.43.78-.96,0,0,.02-.03.02-.03.86-.56,2.13-.52,2.53-1.75,0,0,.08,0,.08,0l.08-.03c1.38-.21,2.09-1.54,3.32-2.04.29-.12,1.07.06,1-.81-.08-.92.67-1.38,1.38-1.75,1.11-.58,2.68-.34,3.3-1.83.04-.09.21-.12.32-.16,1.88-.65,3.6-1.6,5.18-2.8.42-.32.67-.95,1.12-1.12,1.39-.51,2.37-1.51,3.38-2.5.78-.77,1.75-1.49,2.59-1.96,1.32-.73,2.34-2.27,4.2-2.05.4.05,1.08-.47,1.28-.89.46-.95,1.33-1.3,2.08-1.87.86-.65,2.16-1.06,1.83-2.65-.06-.3.55-.81,1.15-.66,1.05.26,1.7-.32,2.28-1.06.23-.06.5-.07.69-.19.64-.42,1.53-.82,1.58-1.59.1-1.46,1.73.33,1.77-.95.16-.25.33-.5.49-.74,1.02-.53,1.6-1.36,1.76-2.5.12-.86.55-1.01,1.17-.42.53.5,1.11.51,1.59.1,1.12-.95,2.71-.84,3.82-1.9.53-.5.72-.74.51-1.39-.11-.33-.53-.78-.16-1.03.63-.43,1.46-.43,2.17-.82.46-.26.04.51.27.7.11.1.34.21.43.16.68-.37,1.72-.3,1.8-1.42,0,0,.02-.02.02-.02,1.72-.53,2.72-2.12,4.29-2.91.47-.24.99-.28,1.43-.57,1.62-1.07,3.34-2.02,4.86-3.22.71-.56,1.85-.86,1.97-2.07.04-.4.45-.25.72-.29,1.23-.21,2.31-.63,3.37-1.42,1.08-.8,2.2-1.71,3.42-2.19,1.22-.48,1.96-1.3,2.75-2.19.07,0,.14-.01.2-.04,1.3,0,2.07-1.06,3.09-1.52,2.1-.95,3.36-2.99,5.47-3.76.67-.24.71-1,1.17-1.09,1-.2,1.87-.77,2.91-.89.41-.05.96-.35.98-.99,0,0,0,0,0,0,1.32-.8,2.89-1.15,4.04-2.26.08-.07.16-.15.24-.22,2.39-1.29,4.83-2.5,7.14-3.93.77-.48,1.75-.39,2.33-1.04,1.33-1.47,3.5-1.46,4.87-2.86.3-.31.81-.41,1.22-.62.37-.19.77-.36.78-.88,1.23-.34,2.46-.69,3.08-1.98.56-.43,1.11-.87,1.67-1.3.7-.26.49-1.3,1.37-1.48,1.85-.4,3.32-1.85,5.31-1.93.36-.01.74-.16.88-.59,0,0,0,0,0,0,.82-.32,1.77-.39,2.28-1.26.23-.18.46-.36.7-.54,1.52-.12,2.42-1.3,3.57-2.07.55-.37,1.46-.62.38-1.43-.07-.05.13-.44.2-.67.39,0,.78-.02,1.17-.03.41-.02.82-.05,1.23.07.55.17.88-.21.73-.66-.32-.97.28-.92.89-.98,2.17-.2,3.94-1.21,5.43-2.76.08-.07.16-.15.25-.22.91.01,1.32-.66,1.78-1.27.23-.19.46-.38.7-.58,1,.11,1.82-.14,2.2-1.17.09-.24.1-.53.41-.55.45-.02.37.28.35.6-.03.41.29.31.52.22.34-.13.63-.21.84.22.24.5.71.89,1.18.49.47-.39.85-1.23.4-1.67-1-.99-.06-1.22.47-1.63.41-.32.87-.63.57-1.22-.44-.85-.57-1.64.04-2.46.08-.11.03-.45-.09-.57-1.21-1.25-1.63-2.87-1.71-4.48-.09-1.99-1.4-3.23-2.54-4.46-1.56-1.69-3.79-2.26-6.05-2.56-.7-.09-1.56,0-2.05-.37-.91-.7-1.96-.19-2.47.04-1.38.62-2.81.88-4.21,1.33-1.2.38-2.38.05-3.55.38-.56.15-.73.87-1.37.73-.93-.21-1.82,0-2.69.26-1.98.58-3.91,1.36-6.02,1.37-.23,0-.36.19-.45.39-.06-.02-.11,0-.16.03-.59-.02-.99.26-1.23.79-.41.01-.83.03-1.24.04-1.17.18-2.41.18-3.29,1.17-.16,0-.32,0-.48.01-.73-.3-1.32.15-1.96.36-1.71.57-3.41,1.34-5.17,1.58-2.83.39-5.23,1.67-7.71,2.9-.62.3-.95,1.09-1.54,1.09-1.27-.01-1.66,1.06-1.92,1.75-.31.84-.64.33-.99.34,0,0-.01-.01-.01-.01-.06-.37-.31-.47-.63-.42-1.69.25-3.21.93-4.63,1.84-.35.23-.47.57-.11.93,0,.16.01.33.02.49-.62.16-1,.59-1.35,1.23.16-.96.04-1.5-1-1.06-.09.04-.24-.04-.36-.06-1.41-.22-3.07.76-3.58,2.13-.55-.16-1.01-.15-1.62.1-1.02.42-2.02.93-3.06,1.29-1.5.51-1.87.85-1.81,2.43,0,0,0,0,0,0-.26-.07-.74.05-.68-.35.26-1.59-.75-.89-1.33-.71-.82.26-1.58.88-2.4.97-1.41.15-2.48,1.01-3.71,1.51-1.48.61-2.82,1.56-4.24,2.31-1.61.85-3.25,1.63-4.95,2.32-1.49.61-2.95,1.45-4.43,2.16-.75.36-1.14.76-1.16,1.55-.34,0-.5.19-.48.52-.08.08-.17.17-.25.25-1.82.14-3.6.38-4.88,1.91-.24.29-.55.48-.92.61-1.45.54-3.03.85-4.04,2.2,0,0-.01,0-.01,0-2.03.12-3.63,1.43-5.46,2.09-1.18.42-2.5.85-3.4,1.89-.06-.02-.11,0-.16.04-.72.25-1.54.35-1.83,1.24-.22.02-.44.03-.66.05-.52-.06-.98.06-1.35.46-.42.47-.96.65-1.54.89-1.07.44-1.99,1.23-2.97,1.88-.06,0-.12.02-.18.05-.29.02-.68-.07-.84.08-1.41,1.3-3.31,1.62-4.91,2.54-.53.31-.8.98-1.47,1.11-.87.17-1.34.73-1.62,1.52-.08.08-.16.16-.24.24-.81.34-1.72.49-2.31,1.24-.15.09-.29.18-.44.28-1.03-.08-2.03-.11-2.37,1.2-.15.08-.3.16-.45.24-1.37.23-2.25,1.46-3.59,1.75-.13.02-.26.04-.39.05-.09.09-.18.17-.28.26,0,0-.02-.01-.02-.01-.7-.03-1.05.41-1.32.96-.13.02-.26.04-.4.06-1.61.39-2.8,1.57-4.27,2.23h0c-.17.09-.34.18-.52.27-.97.09-1.83.35-2.04,1.49,0,0-.01,0-.01,0-1.23.34-1.7,1.8-3,2.04h0c-.08.08-.15.16-.22.24-.3.02-.5.18-.59.46-.29.13-.58.27-.87.4-1.06-.25-1.93.11-2.78.74-.95.71-1.91,1.56-3.01,1.92-1.75.57-3.21,1.53-4.64,2.6-.48.36-1,.5-1.22,1.25-.15.51-.96,1.03-1.66.54-.63-.43-1.03-.1-1.59.09-.76.27-.71,1.28-1.46,1.42-.88.16-1.47.66-1.97,1.35-.27.37-.68.53-1.16.66-1.59.41-2.82,1.54-4.18,2.38-.58.36-.58,1.21-1.71,1.33-3.21.35-5.4,2.88-8.09,4.36-.99.55-1.75,1.62-2.83,2.18-.27.14-.44.37-.44.7-.9.59-2.17.72-2.51,2.01-2.47.21-4.53,1.12-5.77,3.41-.65,0-1.32-.03-1.76.59-1.94.71-2.99,2.62-4.77,3.54,0,0,0,0,0,0-.98.38-2.13.52-2.52,1.75-.7-.06-1.29.09-1.78.68-1.1,1.34-2.6,2.14-4.13,2.87-1.33.64-2.62,1.16-3.33,2.77-.27.62-.45,1.54-1.16,2.14-.54-1.16-1.23-1.18-1.96-.26-.28.35-.63.36-1.01.37-.4,0-.66.15-.92.5-.94,1.24-2.02,2.3-3.67,2.52-1.42.19-2.19,1.05-2.45,2.42,0,0-.02.02-.02.02-.76.58-1.87-.03-2.51.56-.83.77-1.86,1.09-2.81,1.56-.92.46-1.7,1.01-2.17,1.94-.14.03-.29.06-.43.1-.58-.2-.95.23-1.34.5-2.01,1.4-3.75,3.15-6.03,4.23-2.11.99-3.97,2.46-5.71,4.05-.78.71-2.02.65-2.48-.02,1.08,0,1.41-.83,1.78-1.61.64-1.36,1.46-2.48,3.18-2.47.42,0,.53-.34.6-.68.26-1.39,1.44-2.41,2.31-3.05,1.29-.94,2.55-2.03,4.01-2.8.91-.48,1.94-.98,2.28-2.14,0,0,.09,0,.09,0l.08-.04c.64-.25,1.32-.43,1.56-1.2,0,0,.03-.03.03-.03.33-.03.46-.24.46-.54h0c.24-.24.48-.49.72-.73.57-.14,1.14-.28,1.29-.97,0,0,.02-.02.02-.02.52-1,1.86-1.15,2.3-2.24,0,0,.09,0,.09,0l.08-.04c1.12-.67,2.04-1.6,2.94-2.5.64-.64,1.67-.97,1.85-2.03.37-.03.69-.2.7-.58.02-.54.37-.66.78-.8,1.16-.42,1.96-1.3,2.8-2.15.09-.14.18-.29.28-.43,1.33-1.11,2.9-2.01,3.51-3.8,0,0,.02-.01.02-.01.78-.09,1.46-.3,1.54-1.25.06,0,.11,0,.15-.04,1.09.05,1.45-.89,2.06-1.49.08-.07.16-.15.23-.22.45-.07.71-.34.78-.79.08-.07.15-.15.22-.23,1.46-1.11,2.93-2.21,4.38-3.33.11-.09.13-.29.19-.45.26-.16.42-.39.5-.69.92-.04,1.61-.41,2.21-1.18.65-.83,1.41-1.68,2.19-2.3.73-.58,1.49-1.39,2.6-1.56.72-.11,1.36-.61,1.42-1.52.04-.62.55-.79,1.03-1.08,1.11-.69,2.22-1.43,3.1-2.43,0,0,.02-.03.02-.03.82-.68,1.64-1.36,2.46-2.04.33-.33.67-.65,1-.98.49-.06.8-.36,1.02-.78.08-.07.16-.15.24-.22.92-.6,2.12-.82,2.58-2-.26.11-.53.2-.8.3.27-.1.54-.19.8-.3.14-.09.29-.17.43-.26.51-.12.99-.29,1.27-.78.33-.33.65-.66.98-.99.35-.03.63-.18.75-.53.08-.08.17-.15.25-.23.71-.19,1.19-.64,1.49-1.3.09-.07.17-.15.26-.22,0,0,0,0,0,0,1.29-.53,2.01-1.83,3.26-2.43.25-.12.2-.45.19-.69-.04-.65.36-.83.88-.74,1.35.24,2.23-.46,2.95-1.45.23-.32.5-.51.87-.65,2.2-.84,3.62-2.67,5.25-4.22.89-.85,1.27-2.11,2.61-2.66.5-.21,1.38-.52,1.62-1.14.67-1.76,2.57-1.7,3.82-2.46,1.1-.67,2.25-1.41,3.42-2.05.47-.26.96-.69,1.04-1.34.63-.28,1.49-.39,1.83-.88.95-1.33,2.28-2.23,3.39-3.36.2-.2.63-.33.54-.61-.42-1.31.37-1.51,1.36-1.64.28-.04.53-.23.66-.52.16,0,.32,0,.48-.01.48.42,1.01.25,1.33-.1.47-.51.96-.86,1.66-.95.39-.05.66-.37.79-.73.23-.63.69-.98,1.26-1.23.17-.09.35-.17.52-.26.36-.02.62-.18.76-.52.33-.33.67-.65,1-.98,1.13-.16.26-.94.45-1.3.21-.42,1.32-.2,1.09-1.2,0,0-.04-.05-.04-.05l.05.05c.31-.01.62-.03.93-.04.17.01.33.02.5.04,1.32.19,2.06-.67,2.79-1.55,0,0,0,0,0,0,.36,0,.63-.15.76-.5,0,0,0,0,0,0,1.2-.41,2.23-1.04,2.76-2.27.5.01,1.03.12,1.27-.5.07,0,.14-.02.2-.06.5.05.97.01,1.42-.28,1.19-.77,2.36-1.58,3.61-2.23.96-.5,1.5-1.23,1.81-2.2-.12-.01-.23-.02-.34-.01.11,0,.22,0,.34.01.08-.16.15-.32.23-.47,1.39.52,2.1-.61,3.01-1.24.17-.09.34-.19.51-.28.61-.43,1.3-.78,1.82-1.31.98-1,2.26-1.71,2.95-3,.12-.56.84-.46,1.03-.94.8-.11,1.49-.37,1.95-1.13.69-1.16,1.46-2.26,2.79-2.79.23-.09.5-.19.44-.51-.05-.27-.28-.37-.54-.43-.27-.06-.81.16-.71-.36.09-.46.62-.27.97-.3,0,0,.02.01.02.01,1.69,1.6,1.97,1.59,2.85-.05,0,0,0,0,0,0,.73.03,1.43.03,1.14-1.05-.13-.46.07-.54.53-.53,2.16.02,4.36-1.62,5.1-3.76.07.03.14.05.22.05.35.9.71.53,1.07,0,.41-.25.73-.58,1-.98,1.74-.63,3.01-1.97,4.4-3.1.77-.62,1.84-1.04,2.18-2.13,0,0,.03-.03.03-.03,1.11-.72,2.33-1.28,3.26-2.26.22-.18.37-.48.71-.5.47-.12.96-.18,1.32-.6.34-.41.69-.87,1.14-1.11,1.47-.79,2.29-2.36,3.84-3.04.26-.12.26-.5.29-.79.14-.01.28-.02.42-.03,1.42-.61,2.75-1.35,3.56-2.76.08-.08.16-.15.23-.23.89-.29,1.44-.93,1.82-1.75.06,0,.11-.01.16-.05.54-.16.94-.51,1.34-.9,1.55-1.54,3.43-2.67,5.11-4.03,1.02-.83,2.34-1.48,2.87-2.85.61.02.81-.77,1.39-.74,1.13.05,1.62-.66,2.23-1.47.48-.64.86-1.35,1.34-1.99,1.16-1.53,1.64-3.4,1.59-5.36-.01-.42-.21-.74-.65-.78-.4-.04-.88-.16-.94.49-.02.14-.04.28-.06.42-.59-.12-.58-.6-.61-1.04-.02-.37-.12-.64-.55-.64-.36-.2-.51-.5-.44-.9,0,0,0,0,0,0,.74-.31,1.53-.66,1.84-1.41.33-.81-.73-.85-1.02-1.36-.02-.04-.04-.07-.06-.11-1.23-2.23-1.87-2.57-4.21-2.28-.22.03-.41,0-.57-.17-1-1.05-1.88-.68-2.7.3-.16-.33-.12-.91-.53-.78-1.42.44-3.16-.61-4.35.98-.37.5-.97,1.11-1.69.47-.94-.82-1.98-.54-2.81-.1-.85.45-1.44,1.65-1.18,2.44.5,1.53-.7,2.38-.84,3.71-.45-.46-.18-.93-.36-1.3-.14-.75-.29-1.49-.43-2.24.02-.62-.44-.93-.87-.71-1,.51-2.22.67-2.91,1.71-.08.08-.16.16-.25.24-.31.05-.93-.07-.87.22.31,1.48-.89,1.13-1.53,1.26-.74.16-.81.85-1.26,1.23-.22.19.33.37.49.59-.14.71-.28,1.43-.42,2.14-.5.19-.41.67-.52,1.05-.06,0-.11,0-.16.04h0c-.32.08-.65.16-.97.24-.26-1.08-.91-2.06-.79-3.24.05-.76-.27-.89-1.17-.68-1.06.25-1.72,1.29-3,1.24-.99-.03-1.96.6-2.63,1.45-.21.26-.39.63-.72.66-.85.07-.89.62-.79,1.23.15.93-.25,1.75-.9,2.17-.66.43-.58.9-.6,1.45-.7.12-.31.58-.29.92-.15.06-.31.11-.46.17-.6-.16-1.45.22-1.62-.8-.49-.18-.82-.64-1.28-.87.46.23.79.68,1.28.87.04-1.03-.87-1.1-1.54-1.41.26-.49,1.13-.6.76-1.21-.56-.94-1.35-.14-2.02-.06-.55.06-.75.49-.38,1.02.16.23.46.5.12.74-.27.18-.57-.07-.75-.28-.29-.35-.69-.51-.97-.22-.63.64-1.55.97-1.95,1.85-.16.08-.32.15-.47.23-.81.32-.33,1.04-.49,1.56-.45.26-.84.24-.89-.36-.05-.57-.3-.72-.81-.57-.76.08-1.52.02-2.3.27-1.26.41-.54,1.4-.77,2.1-.21.64-.36.85-1.11.42-.8-.47-1.85-.5-2.73-.13-1.55.65-2.78,1.88-4.38,2.48-.54.2-1.08.86-.92,1.61.14.65-.16.78-.65.71-1.09-.17-2.06.43-3.17.37-.85-.05-1.91.52-2.36,1.26-.89,1.47-2.43,2.04-3.73,2.79-1.1.64-1.49.9-.59,1.89.25.28.42.57.08.86-.37.3-.59.94-1.17.81-.44-.1-.35-.6-.39-.97-.02-.17,0-.34-.03-.5-.15-.77-.4-1.22-1.21-.51-.7.62-1.41,1.24-2.41,1.61.93.34,2.06.28,2.34,1.56.04.2.85.26,1.27-.04.7-.5,1.36-.48,2.06.02.47.34.77.21.79-.42.03-1.06.93-1.67,1.35-2.56-.16.65.32,1.36-.03,1.88-.38.58.13,1.3-.5,1.82-.27.22.02.84.31.98.62.29.64.73.71,1.3.08.64.54,1.33,1.23,1.04,1.02-.42,1.5-1.93,2.98-1.5.03,0,.14-.1.15-.17.31-1.54,1.81-1.19,2.76-1.68.5-.26,1.45-.49,1.44-.78-.05-1.64.8-1.64,1.96-1.32.06.02.17-.03.23-.09,1.13-1.07,2.99-.69,3.98-2.14.47-.69,1.66-.51,2.31-.98,1.35-.97,3.17-1.65,3.01-3.9-.04-.59.63-.84,1.07-.28,1.24,1.61,1.84,1.56,3.06-.41.09-.14.08-.33.17-.47.28-.43,1.75-.52,1.88-.08.21.77.52.75,1.04.34.21-.17.55-.28.7-.12.78.83,1.29.14,1.77-.31.5-.47,1.15-.93,1.06-1.74-.1-1.01.46-1.17,1.22-.97.68.18.95-.08,1.42-.57.52-.55.65-1.48,1.41-1.7,1.1-.33,1.77.36,2.34,1.23.78,1.19,1.24,1.2,2.01.13.1-.14.16-.3.27-.42.25-.28.5-.61.94-.49.33.09.61.28.67.67.06.44-.2.71-.52.93-.83.56-1.66,1.12-2.16,2.03-.08.14-.16.33-.37.28-1.29-.33-1.34.12-.75,1.1.15.25.02.65.01.99-.18.25-.46.21-.7.27-.08,0-.17-.03-.25,0-.92.28-1.59,1.36-2.79.82-.2-.09-.45.32-.46.64-.02.37-.22.62-.55.77-1.05.47-1.94,1.64-3.32.78-.09-.06-.27-.05-.36,0-1.04.61-1.98,1.5-2.48,2.47-.59,1.12-1.2,1.99-2.29,2.62-1.03.6-2.17.96-3.24,1.54,1.49,0,2.56.85,3.6,1.51-.71,1.06-1.94,1.58-3.02,1.47-1.27-.14-1.76.03-1.5,1.76-.99-1.56-2.3-1.46-3.43-1.66-.5-.09-1.5.32-1.61.69-.35,1.21-.99,2.37-.92,3.68-.78-.06-1.24-.42-1.2-1.27.01-.28.06-.63-.33-.72-.45-.1-.57.3-.68.59-.15.4-.47.61-.73.89-.58.63-.89,1.49-1.98,1.41-.12,0,.02.45.12.67.31.71-.64,1.04-.55,1.74.02.13-.36-.07-.41-.34-.11-.6-.66-1.26-1.04-.89-1.08,1.04-2.73,1.23-3.59,2.41-.87,1.19-2.22,1.73-3.15,2.8-.18.21-.36.42-.73.37-.96-.14-1.12.31-.93,1.18.2.92.99,2.08-.66,2.56-.04.01-.03.24-.04.36.16-.01.34,0,.49-.05-.15.05-.33.03-.49.05-.12.9-.64,1.39-1.53,1.51-.15.34-.29.67-.44,1.01-.68.01-1.12-.41-1.51-.88-.47-.56-.87-.49-1.25.08-.25.01-.51.02-.76.04-.4-.07-.84.14-1.22-.15-.49-.37-.47-.4-.76.33-.33.84-1.57,1.27-2.07,2.24-.02.04-.38-.11-.58-.14-.64-.1-1.12-.05-1.23.79-.06.47-.35,1.13-.88,1.1-1.01-.05-2.11-.48-1.99,1.23,0,.03-.14.11-.21.1-1.14-.15-1.44.5-1.49,1.48-.02.35-.41.43-.66.62-.8.61-1.81-.04-2.66.66-.92.76-1.79,1.59-2.68,2.38-.5.45-1.48.41-1.53.88-.13,1.32-.97,1.25-1.88,1.35-.69.07-1.21.42-.91,1.27.11.3.21.61-.2.71-.85.2-.56.76-.44,1.28-.07.08-.15.16-.22.24-.21-.64-.61-.78-1.2-.48-1.17.61-1.83,1.48-1.36,2.92-.25-.05-.37-.05-.48-.1-1.42-.72-1.4-.71-2.2.5-.57.86-.28,1.21.65,1.26,0,0,.04.04.04.04.01.22.02.43.04.65-.25.01-.49.02-.74.03-.73-.22-.67-.84-.71-1.41-.02-.39-.09-.79-.56-.82-.38-.02-.63.22-.83.6-.45.83-.48,1.53.36,2.12-.03.22-.05.44-.08.66,0,0,0,0,0,0-.38.06-.67,0-1.01-.29-.88-.75-2.46-.39-3.02.61-.29.52-.61,1.12-1.29.35-.35-.4-.82-.39-1.06.04-.52.93-1.36,1.44-2.25,1.89-.51.26-.52.67-.57,1.14-.09.97-1.22,1.91-1.98,1.72-.62-.16-3.05.69-3.2,1.29-.24.94-.26,1.9-1.66,1.35-.1-.04-.39.13-.41.23-.2,1.02-1.16,1.35-1.85,1.68-1.14.55-1.83,1.65-3.12,2.08-.71.24-1.78.52-2.18,1.21-.61,1.04-1.74,1.42-2.4,2.31-.51.69-1.89.78-1.85,1.5.08,1.5-.95,1.67-1.83,2.1-.6.3-1.03.64-1.15,1.34-.12.68-.35,1.3-1.23.66-.19-.14-.33-.16-.49.1-.7,1.15-2.03,1.57-3.08,2.15-1.89,1.04-2.86,3.29-5.13,3.74-.05,0-.06.16-.11.22-.8.91-1.49,1.9-2.81,2.2-.64.15-.94.69-.37,1.34.17.2.25.46.04.67-.19.19-.36,0-.55-.06-1.24-.45-2.56.3-2.9,1.63-.06.25-.3.25-.42.38-.56.58-1.27.79-2.01.94-.45.1-.69.26-.6.86.13.87-.44,1.54-1.16,1.88-1.02.48-2.03,1.15-2.64,1.93-1.07,1.37-2.76,1.81-3.86,3.1-.64.75-1.46,1.5-2.59,1.64-.14.02-.34.17-.37.3-.21.99-1.16,1.26-1.78,1.84-.21.19-.52.28-.57.62-.2,1.49-1.7,1.66-2.58,2.42-.48.42-1.32.34-1.26,1.34.04.56-.45.22-.74.27-.68.12-1.57.18-.94,1.29.13.23.28.55-.11.55-.74,0-1.02,1.17-1.97.68-.21-.11-.71.34-.7.75.02.96-.66,1.18-1.36,1.35-.55.13-1.02.42-1.42.76-1.46,1.22-2.47,2.97-4.3,3.79-.1.04-.21.21-.2.3.14.72-.44.97-.82,1.38-.27.29-.79.48-.52,1.11.14.31-.1.52-.52.32-1.18-.56-1.57.59-2.17,1.13-.42.38-.74,1.04.06,1.55.22.14.23.46.01.66-.19.17-.37-.03-.56-.09-.25-.07-.42-.91-.79-.11.04.06.14.15.12.17-.1.16-.18.04-.25-.04-.8.06-1.63.07-1.43,1.27.02.12-.11.32-.23.4-.99.63-2.23.94-2.74,2.17-.45,1.1-2.37.93-2.21,2.56,0,.03-.14.06-.21.11-1.83,1.3-3.83,2.41-4.48,4.84-.14.5-.4,1.32-1.39,1.12-1.82-.37-1.94-.27-2.29,1.58-.08.43-.11.82-.63.94-.91.22-1.71.5-1.74,1.71,0,.36-.54.69-.77,1.06-.59.97-1.85.84-2.59,1.66-.72.8-.94,2.19-2.38,2.27-.06,0-.18.21-.17.31.12.89-.42,1.32-1.05,1.81-.42.33-.7.87-.74,1.52-.06.84-.54,1.45-1.49,1.42-.24,0-.46-.05-.35.26.29.78-.11.72-.66.62-.39-.07-.92.15-.98.43-.29,1.44-1.68,2-2.35,3.13-.47.8-1.09,1.52-.84,2.64-.67-.24-1.26-.41-1.72.12-.44.51.19.82.33,1.21.34.91.02,1.19-.89,1.21-.86.02-1.49.17-1.48,1.42,0,.74.35,1.59-.04,2.26-.41.68-.32.95.41,1.15.22.06.58.38.56.44-.67,1.42.58,2.03,1.09,3.01.28.54.53,1,1.04,1.32-.3.51-.95.62-1.03,1.26-.05.38-.14.72.36.68.96-.07,1.58.23,1.91,1.2.13.39.64.35,1,.18.23-.11.62-.16.48-.59-.11-.35-.33-.56-.73-.56-.54,0-.95-.2-1.07-.85.7-.25,1.33.18,2,.14,1.27-.07,2.58.08,3.87-.13.07-.01.18.04.22.1.58.81,1.78,1.38,1.07,2.71-.13.25-.2.55-.23.84-.03.24-.05.52.22.66.27.14.47-.03.68-.18.35-.24.57-.9,1.11-.59,1.03.59,1.52-.08,1.84-.81.44-1.02,1.11-1.9,1.5-2.95.89-2.41,3.16-2.87,5-1.09.43.41.85.71,1.52.25.68-.46,1.72.3,2.4-.55.1-.13.3.18.4.36.28.47.75.3,1.13.24.44-.07.33-.42.33-.78,0-.53.28-.97.96-.8.89.23,1.71.39,1.74-.95,0-.22.2-.41.42-.39.81.08,1.47-.79,2.35-.31.23.12.62.06.8-.21.72-1.08,1.92-1.54,2.91-2.28.5-.37,1.05-.45.91-1.31-.06-.36.48-.81,1.03-.63.39.13.66-.05,1.01-.14,2.24-.58,3.92-2.21,6.02-3.03,1.06-.42,1.19-1.58,1.69-2.42.15-.26.12-.63.51-.7.4-.07.63.16.75.52.12.38.27.76.76.65.85-.2,1.76-.4,2.2-1.25.43-.84,1.18-1.24,1.9-1.73,1.19-.81,2.36-1.68,3.47-2.57,1.6-1.28,3.56-1.97,5.06-3.39,1.14-1.08,2.99-1.08,3.91-2.49.47-.72.9-1.31,1.84-.09-.03-.86-.11-1.4.85-1.14.49.13,1.38.1,1.6-.81.08-.33.42-.47.68-.49.92-.06,1.46-.91,2.36-1.06.47-.08.85-.52.76-1.14-.17-1.2.3-1.73,1.55-1.54.31.05,1.08,0,.85-.33-.61-.84.28-1.75-.31-2.5,0-.29,0-.57,0-.86.84-.17.83.39.89.98.05.52.37,1.02.85,1.13.64.15.62-.48.76-.9.15-.48.49-.78,1.02-.78,2.12,0,3.72-1.01,4.98-2.61.34-.43.69-.51,1.18-.52,1.42-.03,1.42-.04,1.16-1.35.47-.23.73.56,1.11.31.97-.64,2.25-.87,2.72-2.18.28-.78.44-1.9,1.8-1.32.14.06.39-.09.57-.18,1.02-.48,1.98-1.1,2.94-1.66.99-.58,2.46-1.02,2.34-2.72-.03-.38.44-.39.69-.26.62.3.9-.02,1.2-.5.24-.38.6-.62,1.04-.85,1-.52,2.21-.65,2.87-1.86.19-.35.82-1.55,1.86-.71.14.11.6-.03.81-.19,1.06-.82,2.1-1.66,3.11-2.55,1.05-.93,1.23-3.33,3.56-2.03.09.05.31-.16.46-.15,1.49.05,1.53-1.94,2.95-2.05,1.1-.09,2.06-.83,2.85-1.41.76-.56,1.42-1.24,2.36-1.53.06-.02.08-.22.09-.35.13-1.13,1.43-1.04,1.93-1.83.25-.4.64.25.97.25.42,0,1.15-.05,1.03-.58-.22-.91.37-1.4.87-1.59,1.12-.42,1.29-1.3,1.5-2.23,0,0,0,0,0,0,.13,0,.25,0,.37.02,1.2.13,2.47.63,3.09-1.09.23-.65,1.01-1.03,1.66-.89,1.4.29,1.8-.57,2.23-1.57.26-.6.76-1.07,1.32-.39.9,1.09,1.54,1.17,2.06-.26.03-.09.2-.2.3-.2,1.01-.03,1.85-.67,2.54-1.19.96-.72,2.6-.9,2.61-2.6,1.98.89,2.39.32,2.96-1.57,0,0,.02-.02.02-.02.64-.12.89-.73,1.36-1.06.26-.18.43-.56.84-.26.73.53.91.09,1.04-.57.16-.82-.02-1.84,1.19-2.12.28-.06.26-.46.17-.78-.19-.71-.22-1.31.79-.72.15.08.29.16.45.02.17-.16.34-.91.55-.21.16.53,1.32.42.73,1.26-.21.31-.34.64.11.81.41.16.72-.05.93-.43.51-.94.08-1.8-.39-2.78.96.32,1.89.38,1.96,1.56.02.3.24.42.53.41.23,0,.44-.11.45-.34.06-1.25,1.15-1.38,1.87-1.31,1.07.09,1.76-.49,2.4-1.01.7-.57,1.1-1.5,2.22-.71.15.11.59-.21.9-.31,1.14-.35,1.53-2.07,3.08-1.67.07.02.27-.15.26-.23-.06-1.25.7-1.07,1.5-.9.36.07.61-.19.88-.39,1.39-.97,2.49-2.53,4.52-2.21.17.03.39-.15.55-.27,1.99-1.58,4.66-1.73,6.7-3.24.61-.45,1.77-.74,1.76-1.34-.04-1.28.69-.95,1.27-.85,1.53.26,1.66.16,1.53-1.49-.04-.55-.05-1.07.75-.88.29.07.55-.01.58-.3.06-.48-.37-.31-.62-.38-.3-.09-.89.26-.83-.35.04-.35.58-.85.89-.7.69.35.68.01.7-.47.01-.28-.04-.64.39-.66.35-.01.48.26.59.56.17.47.39.93.51,1.41.09.36.28.48.62.46,1.42-.07,2.45-1.12,2.37-2.45-.02-.39-.54-.95.32-1.02.59-.05,1.18-.98,1.8.11.4.7.88.56.99-.3,0,0,.01-.02.01-.02.85-.35,1.69-.59,2.64-.34.33.09.8.52,1.11-.27.29-.76-.3-.7-.6-.94-.31-.25-.57-.54-.31-.96.26-.42.53-.15.84,0,.68.32,1.96.48,2.07.21.42-1.05,1.18-.71,1.85-.74.47-.02.95-.23,1.04-.58.29-1.21.6-1.6,1.36-.27.03.06.31-.02.47-.04.96-.14,1.62-.47,1.57-1.67-.02-.55.31-1.38,1.18-.54.62.6,1.09.36,1.5-.29.51-.82,1.48-1.29,2.23-1.25,1.16.06,1.92-.52,2.86-.91,1.44-.59,2.36-2.41,4.28-1.87.07.02.22-.02.23-.06.27-.81,1.01-.52,1.55-.71,1-.35,1.94-.85,2.9-1.3.26-.12.27-.78.71-.45.38.3-.02.7-.14,1.02-.19.5-.74.46-1.15.63-.79.31-1.53.68-2.15,1.28-.44.43-.48,1.69-1.6.78-.06-.05-.34.08-.42.19-1.02,1.39-3.23,1.68-3.5,3.76-.01.1-.19.26-.26.25-.78-.17-1.25.58-1.88.64-.87.08-.93.38-.75,1.13.14.6-.75,1.18-1.1.75-.69-.84-1.24-.24-1.83-.03-.66.24-1.21.55-.14,1.06.29.14.49.35.38.69-.06.18-.23.26-.4.2-1.74-.62-2.46,1.74-4.1,1.4-.02,0-.09.05-.09.08.02,1.05-.92,1.17-1.54,1.31-1.01.24-1.69.78-2.24,1.58-.18.27-.36.51-.68.2-.54-.52-1.08-.17-1.49.1-.49.32,0,.84,0,1.27,0,.61.38.88.86,1.1.23.1.49.23.37.55-.11.29-.43.18-.65.27-.32-.01-.64-.02-.96-.04-.26-1.31-1.62-.13-2.16-.94-.09-.14-.63,0-.95.05-.08.01-.17.18-.19.29-.24,1.22-1.07,1.44-2.15,1.35-.41-.03-1.04-.2-1.08.5-.04.71-.28.78-.95.68-.39-.06-1.57-.1-.64.98.29.34.27.75-.21.66-1.41-.27-2.22,1.24-3.6,1.09-.45-.05-1.15.11-.92,1.04.11.44-.49.66-.9.67-1.06.02-1.76.98-2.81,1.04-.34.02-.54.38-.42.78.07.23.19.43-.07.66-1.18,1.05-2.41,2.03-3.75,2.86-.26.16-.56.2-.65-.05-.46-1.18-1.14-.38-1.43-.03-1.08,1.25-2.95,1.6-3.63,3.29-.14.34-.57.41-.94.54-1.17.4-2.22,1.02-2.37,2.4-.05.46-.19.55-.58.55-.39,0-.76.14-1.04.39-1.15,1.07-2.38,1.93-3.92,2.44-1.86.62-3.04,2.31-4.61,3.41-.45.31-1.18.4-1.23,1.12-.06.85-.91,1.09-1.3,1.07-1.87-.11-2.73,1.08-3.56,2.4-.35.55-.61,1.42-1.09,1.56-.91.28-.8,1.1-1.22,1.51-.55.55-1.48-.28-2.27-.07-.11.03-.25.11-.31.2-.53.78-1.79,1.03-1.66,2.31.04.4-.29.46-.62.31-1.07-.47-1.55.06-1.81,1.02-.06.22-.04.54-.42.52.09-.94.1-.86-.83-.68-.9.18-.94.67-1.04,1.44-.04.29-1.39.09-1.7.96-.03.08-.04.16-.06.24-.3,1.18-1.27,1.83-2,2.68-.54.64-1.97.6-1.58,2.05.13.47-.38.37-.71.19-.85-.47-1.57-.3-2.01.57-.19.37-.37.37-.68.27-.89-.29-1.06.25-.94.93.12.7-.12,1.26-.49,2.03-.58-1.56-1.46-1.32-2.33-.59-.55.46-1.02.84-1.82.6-.28-.08-.74.17-.78.65-.06.65-.45.92-1.06,1.03-.47.08-.96.37-.82.9.12.46.54.83.77,1.27.45.85-.82.37-.82,1.06,0,.78-.82,1.04-1.43.6-.89-.65-1.28-.47-1.4.61-.03.24.1.56-.16.68-.35.17-.53-.17-.67-.4-.31-.5-.62-.44-.78.04-.43,1.31-2.21,1.12-2.66,2.43-.06.17-.72.25-.92-.25-.26-.64-.65-.25-.88-.05-.37.32-.1.57.23.77.32.19.73.29.79.73.04.32.16.7-.27.86-.3.11-.55.02-.77-.24-1.07-1.19-2.65-1.19-3.89-.16-1.44,1.19-2.99,2.24-4.44,3.42-1.02.83-2.16,1.54-2.66,2.9-.28.75-.89,1.24-1.84,1.25-1.11.01-2.71,1.61-2.82,2.71-.07.71-.28,1-.88.39-.54-.54-1.35-.18-1.4.09-.29,1.37-1.41,1.67-2.41,2.18-1.2.62-1.67,2.31-3.38,2.24-.31-.01-.89.48-.91.77-.09,1.16-1.07,1.6-1.67,2.34-.14.17-.28.33-.25.54.19,1.31-.9,2.18-1.16,3.36-.13.58-.58,1.4-1.7.59-.65-.47-1.86-.78-2.75-.33-1.38.7-2.28,2.18-3.91,2.56-.14.03-.22.42-.28.65-.07.3-.2.56-.45.73-1.38.92-2.99,1.46-4.08,2.86-.28.36-.78.38-.58,1.08.18.65.03,1.26-.92.65-.51-.33-.9-.03-1.15.36.17.62,1.08-.06.99.72-.04.33-.23.84-.72.68-.84-.27-1.48-.12-1.61.78-.11.78-1.15.97-1.02,1.77.22,1.34-.69,1.13-1.36.95-.7-.19-1-.12-1.36.57-.36.69-.89,1.34-1.85,1.46-.83.1-1.47.6-1.51,1.57-.01.27-.15.62-.41.49-1.23-.6-1.63.64-2.39,1.04-.36.19-.64.52-1.07.6-1.03.19-1.87.75-2.37,1.63-.44.77-2.36.4-1.58,2.07.01.03-.17.15-.25.23-.97.96-2.06,1.85-1.98,3.43.02.33-.29.38-.55.28-1.05-.39-.88.17-.73.85.32,1.45.19,1.63-1.32,1.71-.73.04-.85.2-.76.97.09.79.19,1.87-1.23,1.92-.68.02-.98.72-1.31,1.24-.15.24-.19.58-.52.66-.95.22-1.01,1.06-1.37,1.75-.37.72.22,2.41-1.65,1.94-.17-.04-.55.38-.69.66-.26.51-.47,1.06-.62,1.61-.24.9-.82,1.92.63,2.42.33.11.33.54.34.89.03.68.36,1.05,1.09,1.1,1.3.1,2.59.29,3.89.42.42.04.62.16.48.62-.26.84-.49,1.68-.73,2.52-.17.62-.36,1.53.49,1.47,1.07-.07,1.99.3,2.99.39.33.03.69.04.93-.25,1.27-1.53,2.89-2.63,4.63-3.5,1.21-.6,1.47-2.15,2.95-2.48.75-.17.88-.11.89.57,0,.31-.1.93.25.84,1.4-.36,1.53.8,2.01,1.53.16.24.33.37.6.35.4-.03.48-.33.43-.63-.13-.92.29-1.13,1.14-1.12.6.01,1.18-.31,1.8.08.45.28.52-.09.6-.46.21-.93.74-.81,1.16-.21.27.39.5.67.98.57.47-.1.22-.59.38-.81.58-.75.23-2.48,2.05-1.96.33.09.71-.2.56-.62-.25-.71.55-.81.7-1.34.27-.98.84-.08,1.27,0,.83.13,1.9-.25,1.96-.74.15-1.27,1.16-1.79,1.72-2.74.39.53.82.91,1.41.66.64-.27.22-.77.13-1.18-.06-.28.03-.5.27-.64.24-.15.48-.15.67.09.61.78,1.06.64,1.43-.22.1-.24.45-.18.66-.28.95-.44,2.07-.76,2.59-1.71.26-.47.52-.83.94-1.07,1.02-.59,1.9-1.36,3.12-1.73,1.01-.31,2.32-.77,2.42-2.28.01-.22.28-.58.5-.47,1.02.51,1.6-.43,2.36-.69,1.23-.43,2.07-1.82,1.95-3.02-.04-.41.21-.42.39-.63.62-.72,1.91-.46,2.23-1.49.26-.82,1.43-.24,1.47-.91.06-1.03.87-1.23,1.43-1.72.14-.02.27-.04.4-.06.65-.17,1.47-.65,1.91-.42.57.3.84.46,1.36.02.43-.36,1.27-.52,1.38-.92.45-1.55,1.54-2.05,2.95-2.27.3-.05.73-.17.79-.51.07-.36-.29-.55-.59-.7.08-.16.15-.32.23-.48t0,0c.56-.09,1.11-.39,1.7-.05.2.11.52.11.69-.12.17-.23.11-.52-.1-.67-.67-.47-.42-1.22-.6-1.83-.08-.27-.11-.51.25-.55.28-.04.42.11.54.39.41.99,1.2,1.28,2.19.78.32-.16.62-.21.96-.2.54.02.88-.02,1.26-.66.38-.64,1.26-1.14,1.93-1.53,1.19-.68,2.39-1.24,3.01-2.54.2-.42.35-.52.85-.33,1.05.39,1.84-.07,2.31-1.05.16-.33.15-.81.6-.87.82-.11,1-.79,1.36-1.33.16-.23.1-.64.47-.69,1.37-.19,2.41-.93,3.32-1.9.17-.18.38-.07.58-.05,1.5.19,1.53.18,1.54-1.39,0-.72.08-1.16.98-.88.75.23,1.37.2,1.11-.93-.09-.37.12-.78.44-1.11.31.45.38,1.11.99,1.09.67-.03.3-.62.42-.96.06-.17.4-.25.63-.33,1.41-.49,2.98-.47,4.2-1.55.29-.26.6-.37.57-.82-.05-.74.32-.82.95-.65.66.17,1.31.19.77-.82-.11-.2-.18-.5.07-.49,1.44.09,1.19-1.03,1.28-2.06.77.98,1.59.77,2.13.19.98-1.06,1.91-2.04,3.5-1.94.2.01.52-.03.48-.27-.24-1.42.84-.9,1.45-.98,1.17-.16,2.3-.53,3.1-1.36,1.14-1.17,2.2-2.38,3.96-2.52.88-.07,1.52-.26,1.64-1.32.06-.58.58-1.02.38-1.76-.11-.4.28-1.03.99-1.2.7-.17,1.42-.12,2.1-.26.6-.13,1.5-.24.68-1.25-.21-.26-.25-.67.12-.87.33-.18.65-.03.88.26.18.23.34.47.52.71.81,1.09,2.24,1.02,2.96-.18.85-1.41,2.03-2.47,3.29-3.47.25-.2.41-.37.75-.21.27.13.62.16.78-.14.21-.38.26-.98-.03-1.17-.56-.37-.42-1.65-1.63-1.21-.3.11-.59-.37-.42-.73.41-.87,1.32-.95,2.12-1.15.57-.15.85.2,1.13.72.25.46.24,1.49,1.29,1.04.72-.31,1.39.76,1.82.39.8-.7,2.44-.46,2.45-2.1,0-.3.36-.51.65-.49,2.92.25,4.65-2.04,6.91-3.19.65-.33,1.43-1.19,1.83-1.03.84.35,1.18-.18,1.64-.48,1.63-1.07,3.23-2.15,5.07-2.9,3.36-1.37,6.33-3.47,9.37-5.42.09-.06.22-.21.2-.28-.33-1.33.49-.81,1.1-.73.32.04.67-.13.99-.08,1.26.17,1.69-1.27,2.79-1.39,2.55-.29,4.68-1.68,6.94-2.71.28-.13.28-.37.41-.56.44-.63.46-1.97,1.9-1.07.35.22,1.2-.1,1.66-.62.27-.31.55-.73.9-.85,1.5-.5,1.78-1.66,1.8-3.02,0-.68.04-1.06.9-.42.79.59,2.3,1.27,2.82.57.61-.84,1.57-.92,2.17-1.68.55-.71,1.79-1.11,2.57-1.2,1.43-.17,2.54-.54,3.61-1.47.4-.34.88-1.21,1.79-.56.16.11.93,0,1.21-.44.73-1.16,2.01-1.45,3.13-1.93,1.1-.47,1.84-1.66,3.18-1.59.95.05,1.89-.51,2.1-1.11.41-1.17,1.21-1.07,2.06-1.23.65-.12,1.46-.04,1.79-.91.09-.25.38-.21.65-.09,1.28.53,2.71.23,3.56-.77.59-.7,1.23-1.23,2.21-1.13.31.03.59-.03.66-.41.12-.68.37-.53.68-.12.31.41.78.44,1.11.17.46-.37.03-.62-.26-.87-.2-.17-.36-.41-.12-.64.26-.24.41.03.62.18.34.24.77.49,1.16.28,1.08-.58,2.42-.58,3.3-1.59.68-.78,1.66-.72,2.59-.9,1.04-.2,2.1-.37,3.14-.58,1.07-.22,1.82-1.11,2.68-1.24,1.25-.2,2.34-.83,3.59-.96.86-.09,1.62-.48,2.32-1.09.53-.47,1.29-.9,1.97-.94.85-.05,1.48-.31,1.92-.93.65-.9,1.63-.73,2.5-.88.33-.05.73.22.69.72-.03.45-.26.56-.68.46-.86-.21-1.21.33-1.64.98-.33.48-1.1.68-.26,1.81-1.26-.75-2.05-.89-2.47.27-.08.23-.34.22-.49.33-1.03.82-2.19,1.33-3.45,1.68-.83.23-1.56.56-1.19,1.76.14.45.17,1.59-.86,1.24-.77-.26-1.37,0-2.04.07-1.34.17-.43,1.14-.59,1.74-.03.1-.11.19-.16.27-.32-.13-.39-.38-.45-.61-.09-.36-.05-.85-.62-.71-.48.12-.44.48-.33.9.15.55.14,1.12-.03,1.74-.43-.28-.48-.95-1.22-.45-.55.37-1.5.12-1.72,1.11-.02.09-.37.12-.57.16-1.8.31-2.33.9-2.43,2.7,0,.15.05.35-.28.42-.1-.24-.22-.49-.3-.75-.11-.39-.07-.93-.69-.82-.7.13-.32.6-.27.98.04.34.22.96-.29.89-.59-.08-1.23.21-1.69-.02-1.32-.66-1.23.08-1.09.96.05.35-.15.74-.42.48-1.51-1.45-.99.46-1.42.83-.51-.03-1.1-.97-1.53.02-.22.5.21,1.45-.96,1.04-.27.95-.79,1.41-1.88,1.49-.43.03-1,.29-1.51.29-.97,0-1.75.33-2.4,1.06-.63.7-1.02,1.79-2.33,1.46-.18-.05-.46.13-.44.36.05.8-.49.95-1.09,1.05-.47.08-.61.39-.77.83-.36.98-1.33,1.55-2.22,1.55-1.24,0-2.38.74-2.87,1.31-.89,1.02-2.21,1.64-2.82,2.9-.05.1-.35.2-.42.15-1.92-1.39-2.32.9-3.33,1.5-1.03.61-2.01,1.41-2.75,2.58-.47.74-1.96,1.36-3.04,1.48-1.35.14-.94,2.33-2.55,1.84-.17-.05-.25.37-.29.62-.23,1.34-.95,1.88-2.26,1.73-.28-.03-.45.12-.65.28-.7.56-1.43,1.09-2.14,1.64-.33.26-.65.38-1.02.1-.33-.25-.59-.33-.74.18-.17.59-.68.57-1.14.53-.68-.05-1.2.27-1.45.81-1.02,2.13-3.08,2.84-5.04,3.19-1.62.29-2.45,1.47-3.62,2.19-.78.49-1.63,1.19-2.33,1.96-.29.31-.41.99-1.08.9-.9-.12-1.47.41-1.93,1.06-.4.57-.83.93-1.55,1.21-.95.37-1.9.98-2.24,2.19-.16.58-.33,1.4-1.05,1.6-.71.19-1.18.57-1.58,1.13-.47.67-1.13.87-1.87.65-.5-.15-.89-.33-.96.43-.03.31-.32.33-.56.39-1.11.3-1.67,1.59-2.93,1.65-.15,0-.34.26-.42.44-.43,1.02-1.19,1.55-2.28,1.66-.26.03-.45.14-.64.33-1.03,1.05-1.79,2.46-3.56,2.57-.3.02-.63.63-.84,1.03-.6,1.14-1.74,1.78-2.63,2.58-.89.79-1.83,1.8-3.25,2-.91.13-.71,1.21-.91,1.88-.19.59-.33.73-.94.48-.83-.34-1.57-.28-1.97.77-.13.34-.23,1.01-.75.96-1.57-.14-2.67.88-3.57,1.77-.79.79-1.69,1.32-2.54,1.98-.44.34-.92.54-.61,1.26.15.35.04.78-.58.54-.98-.38-1.5-.31-1.27,1.01.2,1.15-.57,1.62-1.63,1.12-.31-.15-.42-.04-.61.16-.46.48-.4,1.06-.42,1.65-.01.39.14.94-.49.97-1.52.07-1.59.77-.87,1.87.12.19.13.43-.08.55-.1.05-.36-.02-.43-.12-.52-.68-1-.39-1.62-.09-.58.28-1.17.68-1.89.58-.71-.1-1.16.07-1.27.93-.05.44-.35.74-1.05.76-1.03.02-2.14.76-2.44,1.61-.46,1.3-1.3,1.63-2.41,1.78-1.46.2-2.86,1.55-3.07,3.02-.21,1.47-.5,1.66-1.84,1.21-.74-.25-1.34.26-1.27,1.08.11,1.31-.23,1.75-1.44,1.9-.2.02-.56.07-.57.16-.19,1.09-1.21,1.17-1.93,1.5-.99.46-1.01,1.59-1.69,2.12-1.22.96-1.8,2.75-3.66,2.91-.26.02-.28.31-.37.55-.34.87-1.65,1.01-1.67,2.16-.12,0-.25.01-.36-.01-.81-.18-1.26.03-1.35.96-.08.8-1.44.11-1.43,1.04,0,.7-.34,1.05-.85,1.39-.25.17-.58.45-.2.81.24.22.64.39.38.79-.21.33-.62.19-.93.16-.54-.04-1.07-.16-1.61-.22-.39-.04-.66,0-.88.47-.65,1.4-.18,3.48-2.37,3.97-.03,0-.05.07-.06.1-.18,1.23-1.08,1.37-2.1,1.52-.63.1-1.48.52-1.32,1.31.22,1.1.02,2.3-.93,2.77-.88.44-2.02.43-2.37,1.65-.05.17-.42.23-.64.36-.4.24-.85.5-.91.98-.1.84-.58.76-1.17.63-1.45-.32-1.52-.26-1.67,1.24-.03.31.07.87-.38.77-1.67-.38-1.81,1.18-1.75,1.83.14,1.36-.2,2.08-1.51,2.29.16.57.86.51.79,1.06-.03.21-.21.31-.45.36-1.42.28-1.3.22-.59,1.55.37.69,1.73,1.75-.11,2.48-.12.05-.2.26-.25.41-.36,1.27.06,2.62-.4,3.89-.02.06.11.23.2.26,1.09.38.6,1.17.55,1.88-.04.59-.5,1.28.42,1.72.92.44.91,1.18-.01,1.68-.36.2-.56.34-.44.74.12.37.47.27.75.29.31.02.5-.09.71-.37.36-.5.95-.2,1.43-.19.23,0,.31.36.27.63-.09.63-.7.29-1,.53-.05.04-.06.14-.11.29.96.24,1.91.29,2.71-.33.86-.67,2.08-.67,2.79-1.6.21-.27.46-.03.62.16.51.58.27,1.06-.21,1.52-.32.31-.79.68-.29,1.15.51.48.66-.2.96-.41.3-.21.64-.53.99-.17.29.3.45.69.13,1.13-.18.25-.8.5-.27.87.39.27.77-.11,1.08-.41.31-.3.45-.69.64-1.07.49-.95.99-1.91,1.56-2.82.24-.38.69-.69,1.17-.58.47.1.23.66.44.96.34.5-.47,1.1.2,1.71.33-1.07,1.24-1.33,2.06-1.74.92-.47,1.17-1.42.64-2.2-.34-.5-.4-.85.37-1.08.96-.29,1.42-.17,1.39.96-.02.81.47,1.56,1.24,1.69.64.11.83-.69,1.05-1.23.04-.1.13-.19.24-.34.28.3.51.58.78.82.16.14.57.11.55.02-.19-.81,1.09-1.15.43-2.09.92.23,1.69.5,2.09-.47.34-.81.79-.54,1.01,0,.43,1.05,1.86.85,2.24,1.92.02.07.41.07.6,0,.99-.32,2.43-2.4,2.41-3.44-.02-.94.68-1.54,1.54-1.3,1.82.49,2.45.24,3.39-1.46.29-.53.61-1.05,1.12-1.31,2.38-1.25,4.85-2.35,7.16-3.74,1.28-.77,2.65-1.4,3.87-2.26.71-.5,1.36-.9,2.16-1.25.94-.41,1.87-.94,2.92-1.25.94-.27,1.41-1.5,2.24-1.72,1.97-.5,3.09-2.13,4.69-3.09,1.05-.63,1.62-2.3,2.79-2.28,1.23.02,1.65-1.75,2.95-.99.95-1.16,3.34-.65,3.37-2.9,0-.06.28-.18.43-.17,1.56.1,1.97-.95,2.18-2.32.45.37.57,1.49,1.37.63.69-.74,1.08-1.94,2.49-1.44.03,0,.12-.11.15-.18.38-1.05,1.54-1.3,2.28-1.63,2.02-.92,3.97-1.89,5.68-3.33.18-.15.44-.24.67-.31,2.64-.74,4.56-2.63,6.66-4.2.64-.48,1.34-.75,2.01-1.12,1.07-.58,2.59-.63,2.93-2.21.07-.31.32-.4.67-.4,1.01,0,1.84-.51,2.63-1.08.89-.64,1.74-1.35,2.68-1.92.7-.43,1.55-1.21,2.07-1.18,1.47.07,2.11-1.15,3.01-1.72,1.01-.65,1.41-2.22,3.09-1.91.11.02.29-.02.35-.1.56-.66,1.51-.74,2.07-1.29.52-.51,1.28-.57,1.69-1.15,1.05-1.54,2.95-1.84,4.31-2.94.28-.23.63-.35.76-.72.1-.29.18-.39.57-.44,2.18-.31,3.99-1.56,5.82-2.62,2.21-1.29,4.05-3.26,6.85-3.34.33,0,.55-.12.6-.49.11-.7.74-.91,1.19-1.32.7-.64,1.55-.34,2.28-.65.97-.42,2.01-.72,2.88-1.35,1.75-1.27,4.26-1.25,5.57-3.27.21-.32.57-.43.97-.51,2.61-.48,4.52-2.54,7.09-3.13.16-.04.24-.34.41-.45.63-.41,1.03-1.36,1.75-1.34,1.27.05,2.11-.78,3.16-1.13,1.89-.64,3.27-1.96,4.86-3.04,1.2-.82,2.37-2.03,4.12-1.46.34.11.62-.18.9-.36,1.04-.65,2.18-1.2,3.24-1.75,1.11-.57,2.52-.85,3.55-1.59,1.21-.86,2.8-.56,3.95-1.71.47-.47,1.55-.91,2.56-1,.62-.06,1.59-.32,1.98-1.14.25-.51.43-.86,1.1-.41.36.24.89.05,1.12-.44.38-.79,2.94-2.21,3.75-2.29.91-.08,2.11-.12,2.64-.68,1.08-1.15,2.73-.98,3.86-2.21.81-.88,2.18-1.55,3.3-2.3.48-.32.87-.52,1.45-.09.36.27,1.09.43,1.28-.19.23-.77.73-.66,1.26-.67.75-.02,1.51,0,2.25-.11.7-.1.72.17.54.69-.37,1.05-2.97,2.82-4.09,2.77-1.12-.06-1.71.87-2.51,1.37-.36.22-.02.67.34.89,0,.21,0,.43.01.64-.45.04-.64-.34-.94-.54-.34-.23-.83-.33-.96.1-.24.77-.83.66-1.38.82-.67.19-1.52.14-1.53,1.28,0,.61-.44.13-.7.04-.45-.15-1.03-.29-.93.46.15,1.14-.52,1.47-1.37,1.38-.96-.1-1.5,1.17-2.53.66,0,0-.18.19-.17.29.12,1.22-.63.97-1.35.86-.32-.05-.64.02-.96.19-.91.47-1.1,2-2.53,1.73-.03,0-.13.13-.13.19.05.94-.56.95-1.23.91-.39-.02-.62.1-.85.52-.47.86-1.74,1.06-1.93,2.21,0,.02-.09.06-.1.05-1.2-1.15-1.79-.3-2.34.7-.01.02-.08.03-.12.02-1.67-.17-2.43,1.52-3.85,1.9-.48.13-.33,1.03-1.13.98-.79-.05-1.11.37-.82,1.21.19.56.02,1.05-.6,1.34-.59.27-.95.11-1.24-.42-.16-.29-.38-.45-.71-.19-.66.54-1.5.85-1.83,1.79-.24.71-.68,1.39-1.33,1.78-.58.35-1.14,1.38-1.77.92-1.26-.94-1.82-.06-2.55.62-.15.14-.28.34-.46.4-2.39.79-3.99,2.8-6.11,4-.41.23-.45.67-.44,1.11,0,.36-.12.84-.49.7-1.22-.48-1.54,1.08-2.54,1.04-.12,0-.32.18-.36.31-.42,1.34-1.54,2.07-2.48,2.97-.68.65-1.36.9-2.25.6-.75-.25-1.21.04-1.42.77-.14.46-.46.66-.89.92-1.28.78-2.93,1.17-3.54,2.77-.22.56-.48.81-1.1.99-.69.21-1.28.78-1.9,1.22-.43.3.24,1.07-.2,1.08-1.23.02-1.29,1.09-1.67,1.75-.42.72-1.2,1.29-1.1,2.29.13,1.23-.62,1.69-1.7,1.82-.08-.59-.66-.95-1-.99-1.59-.22-2.21,1.04-2.7,2.25-.65-.39.26-1.07-.5-1.23-.6-.12-.89.37-1.21.74-.24.28-.52.56-.66.89-.29.65-.62,1.09-1.45,1.01-.33-.03-.87.12-.83.73.04.49-.31.7-.63.99-1.36,1.29-3,2.19-4.44,3.37-.61.5-.57,1.31-1.31,1.81-1.17.8-1.82,2.23-3.09,3.03-.22.14-.62.56-.58,1.05.07.7-.41,1.2-.9,1.39-1.07.41-1.48,1.27-1.86,2.19-.19.46-.4.68-.94.52-1.13-.34-1.04.28-.88,1.08.06.32.68.9-.19,1.08-1.35.29-.08,1.32-.47,1.68-.44.41-1.51-.07-1.55,1.1-.07,1.82-1.06,3.65.2,5.44.3.43-.16.72-.46,1.02-.31.32-.33.9.2.74.85-.25,1.51.07,2.26.22.33.06.58,0,.53.42-.04.37-.29.28-.56.23-1.03-.2-1.16.34-.67,1.03.3.42.04,1.01.6,1.4.27-1.4,1.68-1.31,2.33-1.23,1.48.2,2.09-.79,2.99-1.44.25-.18.01-.81.57-.63.32.11.5.42.54.79.06.55.29,1.02.9.99,1.59-.09,2.14.4,2.16,2.04,0,.58.24,1.16.75,1.36.89.35.11-.61.48-.73.08-.02.16-.08.23-.08,1.69.15,2.22-1.15,2.9-2.29.76-1.27,1.78-1.29,2.94-.26.57.51,1.17,1.03,2.12,1.09.79.05,1.94-.69,2.46.64.03.09.48.06.72,0,1.16-.23,1.52-.9,1.5-2.74.08-.08.16-.16.24-.24h0c1.14-.59,1.66.58,2.47.91.36.15.64.5.83-.13.18-.6.89-.7,1.15-1.27.15-.34.7-.46.95-.06.53.84,1.19.54,1.85.31.72-.25,1.21-.65,1.03-1.55-.09-.44-.02-.85.68-.49.81.41,1.31.1,1.13-.86-.16-.84.15-1.19.97-1.18.47,0,.93.04,1.01-.63.05-.37.42-.38.71-.35,1.52.15,2.68-.53,3.71-1.54.35-.34.73-.34,1.11,0,.48.43,1.11.4,1.48,0,1.33-1.39,3.15-1.97,4.72-2.96.26-.16.54-.18.4-.6-.26-.73.01-1.09.78-1.19.52-.07.57-.66.59-1,.04-.63.26-1.12.61-1.6.23-.31.27-.91.83-.76.43.12.53.56.61,1,.19,1.13.67,1.3,1.62.63.2-.14.39-.43.59-.44,2.59-.14,4.12-2.57,6.61-3.02.66-.12,1.16-1.22,2.18-.95.06.02.22-.15.24-.24.3-1.61,2.01-1.78,2.99-2.45,1.22-.83,2.65-1.86,4.35-1.92.2,0,.39-.1.49-.33.38-.97,1.42-1.24,2.08-1.93.58-.61,1.86-.36,2.09-.81.47-.91,1.5-.96,1.86-1.49,1.06-1.57,2.95-2.03,4.05-3.33.81-.96,1.76-1.23,2.62-1.07,2.87.52,4.39-1.48,6.16-3,.47-.4,1.27-.54,1.29-1.38.08-.07.17-.14.25-.21.35,0,.59-.18.74-.49h0c.17-.1.33-.2.5-.29.83-.41,1.56-.92,2.04-1.74.41-.71.77-.57,1.23,0,.53.67,1.12.89,1.6-.1.17-.36.45-.5.82-.31.45.23.86,0,1.19-.18,1.13-.61,1.93-1.59,2.7-2.58.17-.22.2-.5.59-.52,1.45-.08,1.75-.51,1.14-1.78-.33-.68-.13-.81.5-.81.4,0,.75.07.97.45.18.3.47.37.76.25.42-.17.16-.47.09-.73-.36-1.32.28-2.05,1.66-1.86.25.03.57.19.7-.04.65-1.13,1.02-.08,1.15.24.41.96,1.14.88,1.74.51.88-.55,1.81-.95,2.73-1.39.73-.35,1.57-.32,2.22-.74,1.12-.71,2.19-1.47,3.51-1.79.12-.03.32-.07.33-.14.25-1.16,1.27-1.01,2.06-1.2.78-.19,1.36-.58,1.6-1.34.14-.43.27-.71.77-.52,1.72.67,2.79-1.02,4.29-1.16.07,0,.15-.09.18-.16.59-1.35,1.54-2,3.06-1.59.21.06.47-.13.72-.19,1.17-.3,1.55-1.76,2.84-1.92.13-.02.21-.42.29-.65.06-.18.08-.58.24-.49,1.3.76,1.98-1.29,3.29-.67.45.21.47-.4.53-.77.18-.96,1.05-1.3,1.66-.97.89.49,1.15-.06,1.68-.45,1.16-.85,2.47-1.39,3.94-1.32.94.04,1.78-.02,2.17-1.03.16-.41.44-.45.79-.45,2.16.03,3.28-1.61,4.38-3.01,1.15-1.48,2.64-1.97,4.37-.91.19.12.38.2.59.11.25-.11.19-.31.14-.53-.23-.94.44-1.12.98-.8,1.3.75,2.15-.11,2.82-.82,1.08-1.14,2.76-.82,3.89-1.88.31-.29.95-.42,1.24-.95.13-.24.18-.68.51-.63.94.13.8-.27.46-.81-.24-.38-.38-.89-.05-1.15.45-.36.71.22,1.01.46.29.23.56.62.83-.03.59-1.46,1.37-1.63,2.56-.58.67.59,1.32.39,1.48-.51.08-.42.19-.87.65-.56.89.62,1.44,0,2.13-.35.87-.46,1.61-1.2,2.64-1.33.58-.08.57-.44.62-.89.1-.83.49-1.6,1.3-1.88.65-.23,1.11-.49,1.28-1.16.06-.23.18-.44.21-.51,1.26.23,2.15,1.15,3.3,1.54.66.22,1.34.18,1.83-.43.31-.38.62-.36,1.09-.26,1.22.25,2.31-.44,2.96-1.25.41-.51.28-1.76-.05-2.48-.43-.93.09-1.18.6-1.58,1.06.28,2.18-.08,3.24.31.03,1.26,1.08.51,1.6.81.4.23.82.6,1.21.11.38-.48-.47-.47-.44-.85.01-.17.02-.33.04-.5h0c.13-.18.26-.37.4-.55.62.46,1.24.91,2.06,1.52-.18-1.01,0-1.42.89-.85.31.19.89.25,1.06-.29.21-.64.55-.55,1.06-.42.83.22,1.57-.29,2.25-.6.61-.27-.08-.97-.03-1.48.04-.35-.14-.75.19-1.06.49.07.79.43.88.8.25.99.59,1.32,1.35.39.22-.27.47-.25.78-.14,1.37.46,3.91-.57,4.62-1.87.26-.49.6-.77,1.18-.76.37.01.78.09,1.08-.21,1.45-1.43,3.49-1.11,5.23-1.7,1.07-.36,1.69-1.72,3.05-1.32.02,0,.18-.35.22-.54.06-.27.16-.42.45-.52,1.61-.53,2.39-1.67,2.35-3.37,0-.24-.05-.55.3-.59.28-.04.47.15.57.4.35.88,1.73.97,1.4,2.38.53-.39.49-.65.47-.89-.1-1.2.35-1.33,1.24-.66.54.41,1.17.3,1.68.11,1.42-.54,3.01-.58,4.29-1.48.19-.13.35-.22.56-.1.81.48,1.57.12,2.2-.31.65-.45,1.31-.55,2.06-.67,1.04-.16,2.29-.35,2.98-1.02.76-.73,1.59-1.01,2.46-1.16.76-.13,1.49-.01,1.73-1,.08-.31.45-.59.8-.47,1.43.48,2.77.24,4.04-.45,1.29-.71,3.14.14,4.07-1.52.02-.03.23.06.35.06,1.79,0,3.21-1.1,4.63-1.88,1.17-.65,2.33-1.32,3.6-1.71,1.19-.36,2.43-.53,3.65-.77.94-.19,1.49-.65,1.37-1.71-.07-.66-.02-1.34-.03-2.01,0-.69.2-.95.9-.55.62.36,1.36.5,2.03.41.66-.09.55-.83.64-1.35.01-.07.08-.19.12-.2,1.33-.1,1.51-1.51,2-2.22,1.4-2.08,1.2-2.22-1.03-3.58Zm-362.29-4.41c-.11,0-.23,0-.34,0,.11,0,.23,0,.34,0Zm-76.46,38.4c.33-.42.73-.77,1.42-.64h0c-.69-.12-1.09.23-1.42.64Zm1.57-1.53c.03-.08.06-.16.09-.23-.03.07-.06.15-.09.23Zm55.67-47.43c.25-.09.43-.26.57-.52-.14.25-.32.43-.57.52Zm.93-1.76h0c-.38-.6.31-.68.49-1,.06-.2.11-.39.19-.58-.07.19-.13.39-.19.58.55-.19,1.05-1.04,1.67-.12,0,.21,0,.42,0,.63-.56.86-1.44.32-2.16.49ZM209.45,19.69h0c-.58.42-.77.88-.8,1.39.04-.5.23-.97.8-1.39Zm-.89-4.77c.77-.21,1.52-.38,1.87-1.22.09-.22.33-.21.53-.06.16.12.19.27.11.44-.16.33-.34.65-.51.97.35.18.68.34,1.01.51,0,0,0,0,0,0-.96.82-.17,1.93-.46,2.86,0,0,0,0,0,0-.4.65.14.94.5,1.3.16.52-.38.72-.49,1.11,0,0,0,0,0,0-.32.12-.63.25-.26.65-.1.28-.19.56-.28.84,0,0,0,0,0,0-1.11.08-.67-.77-.78-1.3.31-.4.85-.68.67-1.33-.37-.37-.33-1.38-1.29-.83-.17.01-.33.03-.5.04-.14-.02-.27-.04-.41-.06-.19-.27-.28-.56-.22-.88h0c.28-.27.31-.53,0-.79-.02-.33-.04-.67-.06-1-.02-.51-.03-1.06.58-1.23Zm-8.18-.53c.17-.03.35-.07.52-.1.28.27.92-.42.97.31.04.51-.51.9-.85.91-.62,0-.58-.65-.65-1.12-.16,0-.31,0-.47.01h.47Zm-10.17-.07c.35.65-.01,1.22-.17,1.81-.06.1-.12.21-.18.31-.31.47-.63.63-.95.51.32.12.64-.04.95-.51-.51,0-1.02.01-1.54.02,0,0-.02-.03-.02-.03h0c.33-.97,1.07-1.58,1.9-2.11Zm-8.2,1.95c.1.17.19.26.2.36.02.14-.09.22-.22.16-.06-.02-.11-.13-.11-.19,0-.09.06-.17.13-.33Zm-.97,6.26c-.55.3-.66-.25-.83-.6.05-.14.09-.28.14-.43,0,0,0,0,0,0,.24-.02.47-.03.71-.05,0,.36.5.79-.02,1.07Zm2.65-2.2c-.23,1.04-.59,1.64-1.77,1.19-.26-.1-.56-.06-.84-.08-.01-.42.36-.62.53-.94.41-.77.43-1.39-.72-1.35.06-.5.12-.99.17-1.49.82.43,1.63.84,2.54.21-.14-.32-.14-.72-.36-1,.22.27.23.67.36,1,.23.32.2.7.23,1.06.15.15.24.33.29.53-.06-.19-.14-.37-.29-.53-.55.4-.02.91-.13,1.39Zm.5,3.04c.08.17.24.28.51.29-.27,0-.42-.12-.51-.29Zm-3.51,12.87c-.23,0-.35-.17-.31-.41.05-.31.24-.53.55-.53.22,0,.35.17.26.66-.01.06-.2.27-.51.28ZM9.49,175.83s0,0,0,0c0,0,0,0,0,0Zm-2.55.57c.37-.98,1.19-.62,1.91-.4,0,0,0,0,0,0,.12.76-.47,1.08-.92,1.5-.43-.28-1.28-.31-.99-1.09Zm-2.13,14.09c-.07-.03-.14-.06-.2-.09.07.03.14.06.2.09,0,0,0,0,0,0Zm319.24-43.26c.42-.25.87-.36,1.07-.93.15-.43.65-.29.99-.2.36.09.51.4.49.88-.49.35-.17,1.75-1.55,1.2-.51-.21-.71.26-.98.56-.18.19-.23.76-.7.33-.35-.31-.5-.67-.13-1.07.26-.27.5-.58.81-.77Zm-2.09,1.43c.21.49-.26.96-.5,1.02-.68.17-1.19.8-2.02.68-.22-.07-.68.21-.78-.24-.1-.45.35-.47.67-.54.61-.13.35-.66.49-1.02.14-.36.38-.75.79-.67.51.1,1.11.19,1.36.76Zm36.68-24.54s.04-.07.06-.1c-.03.03-.05.06-.06.1Zm-247.68,52.04c.4-.61.79-1.03,1.54-.44.19.15.46.19.43.51-.03.29-.19.48-.48.45-.94-.07-.73.68-.87,1.18,0,0,0,0,0,0l-.61.37c-.91-.69-.47-1.37,0-2.07Zm109.78-86.55c.01.07.02.15.03.22,0-.08-.01-.15-.03-.22Zm7.05-14.49c.82.68.51,1.1.19,1.49-.14.18-.46.2-.54.01-.24-.55.48-.79.36-1.5Zm-39.94,29.99h0c-.18-.03-.35-.04-.51-.02.16-.01.33,0,.51.02Zm56.57,127.01c.1.17.18.36.25.56-.07-.19-.14-.38-.25-.56Zm11.18-3.68h0c-.04-.54-.68-.84-.56-1.44,0,0,0,0,0,0,.26-.19.2-.48.21-.74.07,0,.13-.02.19-.06.82.31,1.01.97.97,1.75-.03.56-.49.41-.82.48Zm164.75-82.32c-.1,0-.2.02-.3.05.1-.03.2-.04.3-.05Z" fill="#000001"/></g><g id="change1_2"><path d="m104.99,59.31s.19-.07.2-.13c.2-1.18,1.44-1.12,2.1-1.76.55-.54,1.1-.47,1.44.37.38.93,1.08,1.61,2.14,1.29,1.85-.57,3.64-1.32,5.47-1.93.79-.26,1.38-1.2,2.04-1.16,1,.05,1.49-.54,2.08-1.01.24-.19.4-.38.72-.33,1.35.2,2.23-.59,3.01-1.49.22-.26.34-.61.73-.52.86.19,1.51-.41,2.25-.61.88-.24,1.09-1.31,1.49-2.06.25-.47-.38-.72-.8-.91-.34-.15-.11-.4-.12-.63-.03-1.38.5-2.71.34-4.09-.03-.24.06-.63-.22-.64-.62-.03-.97.56-1.45.85-.33.2-.53.55-.24.96.78,1.13-.51.88-.83,1.09-.75.48-.5-.29-.57-.61-.12-.52-.42-.58-.93-.55-1.12.07-1.8,1.01-2.8,1.29-.68.19-.84.59-.47,1.22.14.24.2.55.21.83.02.56.03.96.75.47.34-.24.81-.07.87.36.06.43-.4.41-.73.49-1.2.31-2.28.34-3.54-.15-2.05-.79-2.53-.38-2.25,1.26.46.24.92-.93,1.35-.03.35.72.77.81,1.38.36.17-.13.38-.25.54-.02.08.11.1.38.03.46-.63.64-1.26,1.72-1.95,1.77-.91.06-1.21.44-1.47,1.08-.64-.28-.25-1.42-1.01-1.2-.47.13-1.31.13-1.42.99-.05.42-.16.83.47.66.75-.19.7.15.5.64-.16.37-.34.73-.49,1.07-.55.08-.07-1.14-1.02-.63-1.05.56-2.26.09-2.82-1.01-.26-.51-.62-.88-.97-1.28-.38-.43-.67-.58-1.2-.03-1.29,1.34-3.44,1.41-4.58,3.02-1.42-.16-1.72,1.56-3.21,1.64,1.77,1.36,3.48-.31,4.98.59Zm18.55-10.62c.54-.59,1.77-.08,1.89-1.57.5.88.26,1.21-.18,1.49-.32.2-.61.44-.72.83-.06.22-.1.68-.35.47-.34-.28-.88-.15-1.07-.54-.16-.32.23-.49.42-.69Z" fill="#000001"/></g><g id="change1_3"><path d="m140.75,39.08c.7.23,1.46.34,2.07.71.61.37.05.85-.15,1.27-.04.09.08.32.19.42.51.44.59.94.4,1.58-.19.65.26.94.75.66.99-.56,2.18-.83,2.8-2.03.28-.54.94-1.07,1.8-.69.32.14.69.12,1.04-.18.94-.83,1.42-1.85,1.51-3.07.02-.27-.07-.68.41-.58.8.18,1.23-.65,1.96-.65.36,0,.48-.33.37-.65-.12-.36-.42-.1-.64-.12-.42-.04-.69.23-.97.49-.27.24-.65.42-.88.09-.58-.83-1.25-.52-2-.37-.36.07-1.21.54-1.12-.67.04-.53-.56-.88-1.33-.99-1.06-.15-1.95-.6-2.98.31-.24.22-.97.36-1.3.8-.19.26-.21.61-.66.62-1.2.04-1.99,1.07-3.1,1.37-.35.09-.51.65-.21.81.65.35,1.11,1.13,2.03.87Z" fill="#000001"/></g><g id="change1_4"><path d="m132.16,42.03c.43.17.96.29,1.33.45,1.67.7,3.14-1.01,4.81-.25.23-.31.83.06,1-.49.06-.18-.05-.38-.21-.39-.82-.05-1.51-.68-2.4-.48-1.01.23-1.44-.23-1.34-1.29.02-.25.4-.58-.06-.72-.39-.12-.67.17-.67.54,0,1.12-1.58.58-1.64,1.61-.12-.03-.25-.04-.35-.11-.32-.21-.68-.51-.92.01-.23.48,0,.93.47,1.12Z" fill="#000001"/></g><g id="change1_5"><path d="m154.36,55.32c-1.09-.25-1.33-.89-.8-1.83.23-.41.62-.81-.06-1.09-.54-.22-.87.22-1.06.63-.18.39-.93.78-.34,1.26.87.72.56,1.68.73,2.55.89-.12,1.42-.61,1.53-1.51Z" fill="#000001"/></g><g id="change1_6"><path d="m131.13,46.84c.42-.17.44-.49.15-.79-.55-.57.13-.71.3-1.07-.76.16-1.55.08-2.05.79-.21.31-.62.63-.27.96.54.51,1.23.35,1.86.11Z" fill="#000001"/></g><g id="change1_7"><path d="m140.49,40.32c-.25,0-.41.15-.39.38.05.89-.23,1.72-.39,2.57-.1.52.41.78.92.79.45.01.69-.23.72-.77-.66-.74-.76-1.6-.33-2.57.09-.19-.25-.4-.53-.41Z" fill="#000001"/></g><g id="change1_8"><path d="m245.16,202c.32-.03.24-.38.24-.61,0-.36-.19-.53-.54-.52-.22.03-.44.12-.36.38.1.34.18.8.66.75Z" fill="#000001"/></g><g id="change1_9"><path d="m198.88,8.65c.21,0,.4-.03.45-.29-.04-.29-.22-.43-.49-.46-.23-.03-.4.08-.42.32-.03.32.19.42.46.43Z" fill="#000001"/></g><g id="change1_10"><path d="m126.01,148.03c.02-.16-.03-.34-.24-.32-.08,0-.19.14-.21.23-.03.16.03.32.29.33.05-.07.15-.15.16-.24Z" fill="#000001"/></g><g id="change1_11"><path d="m139.29,40.73s.06.01.1.02l-.03-.14s-.06.02-.09.04c0,.03,0,.07.02.08Z" fill="#000001"/></g><g id="change1_12"><path d="m209.37,18.1s-.13-.09-.19-.09c-.11.01-.21.07-.49.16.4.15.49.19.59.23.03-.1.08-.2.09-.3Z" fill="#000001"/></g></svg>